<svg width="248" height="24" version="1.1" viewBox="0 0 248 24" xmlns="http://www.w3.org/2000/svg">
 <g id="controls">
  <g id="pin-none">
   <path d="m2.5 2.5h19v19h-19z" fill="#fff" stroke="#e1e1e1" stroke-width=".99995"/>
   <path d="m20 9.5477q-0.26533 0.26533-0.52261 0.49045-0.24925 0.21708-0.52261 0.36985-0.26533 0.15276-0.58693 0.24121-0.31357 0.08041-0.71558 0.08041-0.27337 0-0.52261-0.04824l-3.0472 3.0472q0.10452 0.30553 0.15276 0.62714 0.04823 0.32161 0.04823 0.64322 0 0.52261-0.10452 0.94874-0.10451 0.42613-0.30553 0.80402-0.19296 0.37789-0.47437 0.72362-0.28141 0.33769-0.63518 0.69146l-3.1035-3.1035-4.5668 4.5749-1.0935 0.36181 0.36181-1.0935 4.5749-4.5668-3.1035-3.1035 0.36181-0.36181q0.56282-0.56281 1.2864-0.8603 0.73166-0.29749 1.5276-0.29749 0.6593 0 1.2623 0.20101l3.0472-3.0472q-0.04823-0.24925-0.04823-0.52261 0-0.39397 0.08041-0.70754 0.08844-0.32161 0.2412-0.59498 0.15276-0.27337 0.36985-0.52261 0.22513-0.25729 0.49045-0.52261zm-2.3477 0.15276q0.44221 0 0.83618-0.20904l-3.9799-3.9799q-0.20904 0.39397-0.20904 0.83618 0 0.22512 0.04823 0.42613 0.05628 0.19297 0.1206 0.40201l-3.9558 3.9477q-0.20101-0.0804-0.37789-0.15276-0.17689-0.07236-0.35377-0.12061-0.17688-0.04824-0.36985-0.07236-0.18492-0.03215-0.40201-0.03215-0.45829 0-0.89246 0.13668-0.42613 0.12864-0.79598 0.38593l5.4111 5.4111q0.25729-0.36985 0.39397-0.79598 0.13668-0.43417 0.13668-0.88442 0-0.21708-0.03215-0.40201-0.02411-0.19297-0.08041-0.36985-0.04823-0.18492-0.1206-0.36181-0.07236-0.17688-0.15276-0.37789l3.9477-3.9558q0.20905 0.064333 0.40201 0.12061 0.20101 0.048243 0.42613 0.048243z" stroke-width=".88212"/>
  </g>
  <g id="pin-set">
   <path d="m74.5 2.5h19v19h-19z" fill="#fff" stroke="#e1e1e1" stroke-width="1.0001"/>
   <path d="m86.453 4c-0.17688 0.17688-0.3421 0.35191-0.49219 0.52344-0.14473 0.16616-0.2673 0.33924-0.36914 0.52148-0.10184 0.18225-0.18128 0.3813-0.24023 0.5957-0.0536 0.20905-0.08203 0.44439-0.08203 0.70703 0 0.18224 0.01669 0.35727 0.04883 0.52344l-3.0469 3.0469c-0.40201-0.134-0.82219-0.20117-1.2617-0.20117-0.53065 0-1.0415 0.098543-1.5293 0.29688-0.48241 0.19832-0.90995 0.48612-1.2852 0.86133l-0.36132 0.36133 3.1035 3.1035-4.5762 4.5664-0.36133 1.0938 1.0937-0.36133 4.5664-4.5762 3.1035 3.1035c0.23585-0.23585 0.44716-0.46628 0.63477-0.69141 0.1876-0.23049 0.34596-0.47073 0.47461-0.72266 0.13402-0.25193 0.23697-0.5206 0.30664-0.80469 0.06968-0.28409 0.10352-0.60081 0.10352-0.94922 0-0.2144-0.01669-0.42817-0.04883-0.64258-0.03216-0.21441-0.08266-0.42327-0.15234-0.62695l3.0469-3.0469c0.16616 0.03215 0.34119 0.04883 0.52344 0.04883 0.268 0 0.5058-0.02842 0.71484-0.08203 0.21441-0.05896 0.41101-0.13839 0.58789-0.24024 0.18225-0.10185 0.35532-0.22442 0.52148-0.36914 0.17152-0.15009 0.34655-0.31531 0.52344-0.49219z" stroke-width=".88212"/>
  </g>
  <g id="close-btn">
   <path d="m146.5 2.4989h19.002v19.002h-19.002z" fill="#fff" stroke="#e1e1e1" stroke-width=".9978"/>
   <path d="m156.72 12 7.2756 7.2836-0.71642 0.71642-7.2836-7.2756-7.2836 7.2756-0.71642-0.71642 7.2756-7.2836-7.2756-7.2836 0.71642-0.71642 7.2836 7.2756 7.2836-7.2756 0.71642 0.71642z" stroke-width=".40756"/>
  </g>
  <g id="tabs-visible">
   <path d="m217 1v6h6v-6zm8 0v6h6v-6zm-8 8v6h6v-6zm8 0v6h6v-6z"/>
  </g>
  <g id="tabs-hidden">
   <path d="m233 1v6h6v-6zm8 0v6h6v-6zm-8 8v6h6v-6zm8 0v6h6v-6z"/>
  </g>
 </g>
</svg>
