<svg width="16" height="16" version="1.1" viewBox="0 0 16 16" xmlns="http://www.w3.org/2000/svg">
 <path d="m10.453 2.8e-7c-0.17688 0.17688-0.3421 0.35191-0.49219 0.52344-0.14473 0.16616-0.2673 0.33924-0.36914 0.52148-0.10184 0.18225-0.18128 0.3813-0.24023 0.5957-0.0536 0.20905-0.08203 0.44439-0.08203 0.70703 0 0.18224 0.01669 0.35727 0.04883 0.52344l-3.0469 3.0469c-0.40201-0.134-0.82219-0.20117-1.2617-0.20117-0.53065 0-1.0415 0.098543-1.5293 0.29688-0.48241 0.19832-0.90995 0.48612-1.2852 0.86133l-0.36132 0.36133 3.1035 3.1035-4.5762 4.5664-0.36133 1.0938 1.0937-0.36133 4.5664-4.5762 3.1035 3.1035c0.23585-0.23585 0.44716-0.46628 0.63477-0.69141 0.1876-0.23049 0.34596-0.47073 0.47461-0.72266 0.13402-0.25193 0.23697-0.5206 0.30664-0.80469 0.06968-0.28409 0.10352-0.60081 0.10352-0.94922 0-0.2144-0.01669-0.42817-0.04883-0.64258-0.03216-0.21441-0.08266-0.42327-0.15234-0.62695l3.0469-3.0469c0.16616 0.03215 0.34119 0.04883 0.52344 0.04883 0.268 0 0.5058-0.02842 0.71484-0.08203 0.21441-0.05896 0.41101-0.13839 0.58789-0.24024 0.18225-0.10185 0.35532-0.22442 0.52148-0.36914 0.17152-0.15009 0.34655-0.31531 0.52344-0.49219z" stroke-width=".88212"/>
</svg>
