<svg version="1.1" viewBox="0 0 32 32" xmlns="http://www.w3.org/2000/svg" xmlns:xlink="http://www.w3.org/1999/xlink">
<style>
  use:not(:target) {
    display: none;
  }

  use {
    fill: #000;
  }
</style>
<defs>
    <path id="downloads-g" d="m24.703 32h-18v-2h18zm.70312-13.297-9.7031 9.7812-9.7031-9.7812 1.4062-1.4063 7.2969 7.3438v-24.641h2v24.641l7.2969-7.3438z"/>
    <path id="bookmarks-g" d="M 32,12 22.125,19.5937 26,32 16,24.3125 6,32 9.875,19.5937 0,12 H 12.25 L 16,0 19.75,12 Z"/>
    <path id="history-g" d="m16 8v8.5781l5.7031 5.7187-1.4062 1.4063-6.2969-6.2813v-9.4218zm14.75 1.7656q1.25 3 1.25 6.2344 0 3.2343-1.25 6.2343-1.2188 2.8594-3.4375 5.0782-2.2188 2.2187-5.0781 3.4375-3 1.25-6.2344 1.25-2.7188 0-5.25-.8907-2.4688-.8593-4.5156-2.4375-2.0312-1.5781-3.4844-3.7187-.73438-1.0781-1.2812-2.25-.53125-1.1719-.875-2.4375l1.9219-.5313q.625 2.2657 1.9219 4.1563 1.3125 1.8906 3.0938 3.25t3.9531 2.1094 4.5156.75q1.9219 0 3.7031-.5 1.7969-.5 3.3438-1.4063 1.5625-.9219 2.8438-2.2031 1.2812-1.2813 2.1875-2.8281.92188-1.5625 1.4219-3.3438.5-1.7812.5-3.7187 0-1.9219-.5-3.7032-.5-1.7968-1.4219-3.3437-.90625-1.5625-2.1875-2.8438-1.2812-1.2812-2.8438-2.1875-1.5469-.9218-3.3438-1.4218-1.7812-.5-3.7031-.5-2.0312 0-3.9375.5781-1.9062.5625-3.5625 1.6094-1.6406 1.0468-2.9688 2.5312-1.3125 1.4688-2.1719 3.2813h4.6406v2h-8v-8h2v4.2812q.26562-.5.57812-.9687.3125-.4844.65625-.9375 1.4688-1.9532 3.4375-3.375 2.0625-1.4688 4.4219-2.2344t4.9062-.7656q3.2344 0 6.2344 1.25 2.8594 1.2187 5.0781 3.4375 2.2188 2.2187 3.4375 5.0781z"/>
    <path id="addons-g" d="m25.467 13.867q-.45 0-.83333.1667-.38334.1667-.68334.4667-.28333.2833-.45.6666-.16666.3834-.16666.8334t.16666.8333q.16667.3833.45.6833.3.2834.68334.45.38333.1667.83333.1667h3.2v8.5333h-6.4v1.0667q0 .8833-.33333 1.6667-.33334.7666-.91667 1.35-.58333.5833-1.3667.9166-.76666.3334-1.65.3334-.88333 0-1.6667-.3334-.76667-.3333-1.35-.9166-.58334-.5834-.91667-1.35-.33333-.7834-.33333-1.6667v-1.0667h-6.4v-6.4h-1.0667q-.88333 0-1.6667-.3333-.76666-.3333-1.35-.9167-.58333-.5833-.91667-1.35-.33333-.7833-.33333-1.6666 0-.8834.33333-1.65.33333-.7834.91667-1.3667.58333-.5833 1.35-.9167.78334-.3333 1.6667-.3333h1.0667v-6.4h6.4v-1.0667q0-.8833.33333-1.65.33333-.7833.91667-1.3666.58333-.5834 1.35-.9167.78333-.3333 1.6667-.3333.88334 0 1.65.3333.78334.3333 1.3667.9167.58333.5833.91667 1.3666.33333.7667.33333 1.65v1.0667h6.4v8.5333zm0 6.4q-.88333 0-1.6667-.3333-.76666-.3333-1.35-.9167-.58333-.5833-.91666-1.35-.33334-.7833-.33334-1.6666 0-.8834.33334-1.65.33333-.7834.91666-1.3667.58334-.5833 1.35-.9167.78334-.3333 1.6667-.3333h1.0667v-4.2667h-6.4v-3.2q0-.45-.16667-.8333t-.46667-.6667q-.28333-.3-.66666-.4666-.38334-.1667-.83334-.1667t-.83333.1667q-.38333.1666-.68333.4666-.28334.2834-.45.6667-.16667.3833-.16667.8333v3.2h-6.4v6.4h-3.2q-.45 0-.83333.1667-.38334.1667-.68334.4667-.28333.2833-.45.6666-.16666.3834-.16666.8334t.16666.8333q.16667.3833.45.6833.3.2834.68334.45.38333.1667.83333.1667h3.2v6.4h6.4v3.2q0 .45.16667.8333.16666.3834.45.6834.3.2833.68333.45.38333.1666.83333.1666t.83334-.1666q.38333-.1667.66666-.45.3-.3.46667-.6834.16667-.3833.16667-.8333v-3.2h6.4v-4.2667z"/>
    <path id="sync-g" d="m16 30q2.4062 0 4.6094-.7344 2.2188-.75 4.0312-2.0938 1.8281-1.3593 3.1719-3.25 1.3594-1.9062 2.0625-4.2187l1.9062.5937q-.78125 2.6094-2.3281 4.7657-1.5469 2.1406-3.6406 3.6875-2.0781 1.5468-4.5938 2.4062-2.5.8438-5.2188.8438-2.1406 0-4.1719-.5313-2.0312-.5312-3.8438-1.5312-1.7969-1.0157-3.3281-2.4532-1.5312-1.4531-2.6562-3.2812v3.7969h-2v-8h8v2h-4.9375q.92187 1.8281 2.2812 3.3125 1.375 1.4687 3.0625 2.5156 1.6875 1.0312 3.6094 1.6094 1.9375.5625 3.9844.5625zm16-26v8h-8v-2h4.9375q-.92188-1.8282-2.2969-3.2969-1.3594-1.4844-3.0469-2.5156-1.6875-1.0469-3.625-1.6094-1.9219-.5781-3.9688-.5781-2.4062 0-4.625.75-2.2031.7343-4.0312 2.0937-1.8125 1.3438-3.1719 3.25-1.3438 1.8906-2.0469 4.2031l-1.9062-.5937q.78125-2.5938 2.3281-4.75 1.5469-2.1563 3.625-3.7031 2.0938-1.5469 4.5938-2.3907 2.5156-.8593 5.2344-.8593 2.1406 0 4.1719.5312 2.0312.5313 3.8281 1.5469 1.8125 1 3.3438 2.4531 1.5312 1.4375 2.6562 3.2656v-3.7968z"/>
    <path id="preferences-g" d="m27.929 15.434q0 .1414 0 .2829.0157.1415.0157.2829 0 .1415-.0157.2829 0 .1415 0 .2829l4.0707 2.5305-2.499 6.0196-4.668-1.0687q-.37721.4086-.78585.7858l1.0688 4.668-6.0196 2.499-2.5304-4.0707q-.14145 0-.28291.016-.14145 0-.28291 0-.14145 0-.2829 0-.14146-.016-.28291-.016l-2.5304 4.0707-6.0196-2.499 1.0688-4.668q-.40864-.3772-.78585-.7858l-4.668 1.0687-2.499-6.0196 4.0707-2.5305q0-.1414-.0157-.2829 0-.1414 0-.2829 0-.1414 0-.2829.0157-.1415.0157-.2829l-4.0707-2.5305 2.499-6.0196 4.668 1.0688q.37721-.4087.78585-.7859l-1.0688-4.668 6.0196-2.499 2.5304 4.0707q.14145 0 .28291 0 .14145-.016.2829-.016.14146 0 .28291.016.14146 0 .28291 0l2.5304-4.0707 6.0196 2.499-1.0688 4.668q.40864.3772.78585.7859l4.668-1.0688 2.499 6.0196zm-1.8389 2.0432q.0314-.3772.0629-.7387.0314-.3772.0314-.7544 0-.3615-.0314-.7387t-.0629-.7387l3.7092-2.3104-1.3517-3.2692-4.2593.9902q-.48723-.5973-1.0059-1.1002-.50295-.5029-1.1002-1.0059l.99018-4.2593-3.2692-1.3517-2.3261 3.7092q-.36149-.031-.7387-.063t-.73871-.032q-.37721 0-.75442.032-.36149.031-.7387.063l-2.3104-3.7092-3.2692 1.3517.99018 4.2593q-.59725.4872-1.1002 1.0059-.50294.5029-1.0059 1.1002l-4.2593-.9902-1.3517 3.2692 3.7092 2.3261q-.0314.3772-.0629.7544-.0314.3615-.0314.7387 0 .3615.0314.7387t.0629.7387l-3.7092 2.3104 1.3517 3.2692 4.2593-.9902q.48723.5973.99018 1.1002.51866.503 1.1159 1.0059l-.99018 4.2593 3.2692 1.3517 2.3261-3.7092q.36149.031.7387.063.37721.031.7387.031.37721 0 .73871-.031.37721-.032.75442-.063l2.3104 3.7092 3.2692-1.3517-.99018-4.2593q.59725-.4872 1.1002-.9902.50294-.5186 1.0059-1.1159l4.2593.9902 1.3517-3.2692zm-10.09-7.387q1.2259 0 2.2947.4715 1.0845.4558 1.886 1.2574.80157.8015 1.2574 1.886.47151 1.0688.47151 2.2947t-.47151 2.3104q-.4558 1.0688-1.2574 1.8704-.80157.8015-1.886 1.273-1.0688.4558-2.2947.4558-1.2259 0-2.3104-.4558-1.0688-.4715-1.8703-1.273-.80157-.8016-1.2731-1.8704-.45579-1.0845-.45579-2.3104t.45579-2.2947q.47152-1.0845 1.2731-1.886.80157-.8016 1.8703-1.2574 1.0845-.4715 2.3104-.4715zm0 10.059q.86444 0 1.6189-.3143.75442-.3301 1.3202-.8959t.88016-1.3202q.33006-.7544.33006-1.6189 0-.8644-.33006-1.6189-.31434-.7544-.88016-1.3202t-1.3202-.8801q-.75442-.3301-1.6189-.3301t-1.6189.3301q-.75442.3143-1.3202.8801-.56582.5658-.89588 1.3202-.31434.7545-.31434 1.6189 0 .8645.31434 1.6189.33006.7544.89588 1.3202.56581.5658 1.3202.8959.75442.3143 1.6189.3143z"/>
	<path id="restore-g" d="m 16,-3e-7 q 2.203125,0 4.25,0.578125 2.046875,0.5625 3.828125,1.609375 1.78125,1.03125 3.234375,2.5 1.46875,1.453125 2.5,3.234375 Q 30.859375,9.7031247 31.421875,11.75 32,13.796875 32,16 q 0,2.203125 -0.578125,4.25 -0.5625,2.046875 -1.609375,3.828125 -1.03125,1.78125 -2.5,3.25 -1.453125,1.453125 -3.234375,2.5 Q 22.296875,30.859375 20.25,31.4375 18.203125,32 16,32 13.3125,32 10.828125,31.140625 8.359375,30.28125 6.3125,28.734375 q -2.03125,-1.5625 -3.53125,-3.71875 -1.484375,-2.15625 -2.1875,-4.75 l 1.921875,-0.53125 Q 3.140625,22 4.4375,23.890625 5.75,25.765625 7.53125,27.125 9.3125,28.484375 11.484375,29.25 13.65625,30 16,30 17.921875,30 19.703125,29.5 21.5,29 23.046875,28.09375 q 1.5625,-0.921875 2.84375,-2.203125 1.28125,-1.28125 2.1875,-2.828125 Q 29,21.5 29.5,19.71875 30,17.9375 30,16 30,14.078125 29.5,12.296875 29,10.5 28.078125,8.9531247 q -0.90625,-1.5625 -2.1875,-2.84375 -1.28125,-1.28125 -2.84375,-2.1875 -1.546875,-0.921875 -3.34375,-1.421875 -1.78125,-0.5 -3.703125,-0.5 -2.015625,0 -3.921875,0.5625 -1.90625,0.5625 -3.5625,1.609375 -1.640625,1.046875 -2.96875,2.53125 -1.328125,1.46875 -2.1875,3.296875 H 8 V 12 H 0 V 3.9999997 h 2 v 4.28125 q 1.046875,-1.921875 2.546875,-3.453125 1.5,-1.53125 3.3125,-2.59375 Q 9.6875,1.1562497 11.75,0.5781247 13.8125,-3e-7 16,-3e-7 Z"/>
</defs>
<use id="downloads" xlink:href="#downloads-g"/>
<use id="bookmarks" xlink:href="#bookmarks-g"/>
<use id="history" xlink:href="#history-g"/>
<use id="addons" xlink:href="#addons-g"/>
<use id="sync" xlink:href="#sync-g"/>
<use id="preferences" xlink:href="#preferences-g"/>
<use id="restore" xlink:href="#restore-g"/>
</svg>
