<svg width="198" height="18" viewBox="0 0 198 18" xmlns="http://www.w3.org/2000/svg" xmlns:xlink="http://www.w3.org/1999/xlink">
<style>
  use:not(:target) {
    display: none;
  }

  use {
    fill: #000;
  }

  use[id$="-active"] {
    fill: #0078D7;
  }
</style>
<defs>
  <g id="category-icons">
    <path d="m14.601 18h-10.203v-1.125h10.203zm.39855-7.4795-5.5 5.502-5.5-5.502.7971-.791 4.1361 4.1309v-13.86h1.1337v13.86l4.1361-4.1309z"/>
    <path d="m22.838 16.408v-14.513h3.6283v14.513zm1.2094-13.304v12.094h1.2094v-12.094zm-6.0472 13.304v-14.513h3.6283v14.513zm1.2094-13.304v12.094h1.2094v-12.094zm12.17-1.6724 4.6205 13.842-3.874 1.2945-4.611-13.852zm-2.3339 2.0598 3.8551 11.546 1.5685-.5197-3.8457-11.556z"/>
    <path d="m52.625 4.5v11.25q0 .4658-.18457.8789-.17578.4043-.4834.7119-.29883.2988-.71191.4834-.41309.1758-.87012.1758h-10.125q-.46582 0-.87891-.1758-.4043-.1846-.71191-.4834-.29883-.3076-.4834-.7119-.17578-.4131-.17578-.8789v-11.25h2.25v-1.125q0-.6944.26367-1.3096.27246-.6153.72949-1.0723t1.0723-.7207q.61523-.2724 1.3096-.2724.91406 0 1.6963.457.78223-.457 1.6787-.457.69434 0 1.3096.2724.61524.2637 1.0723.7207t.7207 1.0723q.27246.6152.27246 1.3096v1.125zm-3.375-1.125q0-.4571-.18457-.8702-.17578-.413-.4834-.7119-.29883-.3076-.71191-.4834-.41309-.1845-.87012-.1845-.39551 0-.74707.1318.31641.3955.47461.7734.1582.378.21094.7647.06152.3867.06152.8086 0 .4131 0 .8965h2.25zm-7.875 1.125h4.5v-1.125q0-.4571-.18457-.8702-.17578-.413-.4834-.7119-.29883-.3076-.71191-.4834-.41309-.1845-.87012-.1845-.46582 0-.87891.1845-.4043.1758-.71191.4834-.29883.2989-.4834.7119-.17578.4131-.17578.8702zm7.0488 12.375q-.29883-.5274-.29883-1.125v-10.125h-9v10.125q0 .2373.08789.4394.08789.2022.2373.3604.1582.1494.36035.2373.20215.088.43945.088zm3.0762-11.25h-2.25v10.125q0 .2373.08789.4394.08789.2022.2373.3604.1582.1494.36035.2373.20215.088.43945.088t.43945-.088q.20215-.088.35156-.2373.1582-.1582.24609-.3604.087892-.2021.087892-.4394z"/>
    <path d="m68.7 7.7995q-.25312 0-.46875.094t-.38438.2625q-.15938.1594-.25312.375t-.09375.4688q0 .2531.09375.4687t.25312.3844q.16875.1594.38438.2531.21562.094.46875.094h1.8v4.8h-3.6v.6q0 .4968-.1875.9375-.1875.4312-.51562.7593-.32812.3282-.76875.5157-.43125.1875-.92812.1875t-.9375-.1875q-.43125-.1875-.75938-.5157-.32812-.3281-.51562-.7593-.1875-.4407-.1875-.9375v-.6h-3.6v-3.6h-.6q-.49688 0-.9375-.1875-.43125-.1875-.75938-.5157-.32812-.3281-.51562-.7593-.1875-.4407-.1875-.9375 0-.4969.1875-.9282.1875-.4406.51562-.7687t.75938-.5156q.44062-.1875.9375-.1875h.6v-3.6h3.6v-.6q0-.4969.1875-.9282.1875-.4406.51562-.7687t.75938-.5156q.44062-.1875.9375-.1875t.92812.1875q.44062.1875.76875.5156t.51562.7687q.1875.4313.1875.9282v.6h3.6v4.8zm0 3.6q-.49688 0-.9375-.1875-.43125-.1875-.75938-.5157-.32812-.3281-.51562-.7593-.1875-.4407-.1875-.9375 0-.4969.1875-.9282.1875-.4406.51562-.7687t.75938-.5156q.44062-.1875.9375-.1875h.6v-2.4h-3.6v-1.8q0-.2532-.09375-.4688t-.2625-.375q-.15938-.1687-.375-.2625-.21562-.094-.46875-.094t-.46875.094-.38438.2625q-.15938.1594-.25312.375t-.09375.4688v1.8h-3.6v3.6h-1.8q-.25312 0-.46875.094t-.38438.2625q-.15938.1594-.25312.375t-.09375.4688q0 .2531.09375.4687t.25312.3844q.16875.1594.38438.2531.21562.094.46875.094h1.8v3.6h3.6v1.8q0 .2531.09375.4687t.25312.3844q.16875.1594.38438.2531.21562.094.46875.094t.46875-.094.375-.2531q.16875-.1688.2625-.3844t.09375-.4687v-1.8h3.6v-2.4z"/>
    <path d="m81 0q1.2393 0 2.3906.3251 1.1514.3165 2.1533.9053 1.002.5801 1.8193 1.4063.82617.8174 1.4062 1.8193.58887 1.002.90527 2.1533.3252 1.1514.3252 2.3907 0 1.2392-.3252 2.3906-.31641 1.1513-.90527 2.1533-.58008 1.002-1.4062 1.8281-.81738.8174-1.8193 1.4063-1.002.5801-2.1533.9052-1.1514.3165-2.3906.3165t-2.3906-.3165q-1.1514-.3251-2.1533-.9052-1.002-.5889-1.8281-1.4063-.81738-.8261-1.4062-1.8281-.58008-1.002-.90527-2.1445-.31641-1.1514-.31641-2.3994 0-1.2393.31641-2.3907.3252-1.1513.90527-2.1533.58887-1.0019 1.4062-1.8193.82617-.8262 1.8281-1.4063 1.002-.5888 2.1445-.9053 1.1514-.3251 2.3994-.3251zm7.1104 5.625q-.33398-.712-.80859-1.336-.47461-.6328-1.0547-1.1514-.58008-.5185-1.2568-.9228-.67676-.4043-1.415-.6592.31641.4395.57129.9317.25488.4921.44824 1.0195.20215.5185.34277 1.0547.14062.5361.24609 1.0635zm.76465 3.375q0-1.169-.3252-2.25h-3.1904q.07031.5625.10547 1.125.03516.5537.03516 1.125 0 .5712-.03516 1.1337-.03516.5538-.10547 1.1163h3.1904q.3252-1.0811.3252-2.25zm-7.875 7.875q.43066 0 .7998-.2374.37793-.2373.69434-.624.31641-.3867.5625-.8701.25488-.4922.44824-.9932.19336-.5009.3252-.9668.13184-.4658.20215-.8085h-6.0645q.07031.3427.20215.8085.13184.4659.3252.9668.19336.501.43945.9932.25488.4834.57129.8701.31641.3867.68555.624.37793.2374.80859.2374zm3.2256-5.625q.07031-.5625.10547-1.1163.04394-.5625.04394-1.1337 0-.5713-.04394-1.125-.03516-.5625-.10547-1.125h-6.4512q-.07031.5625-.11426 1.125-.03516.5537-.03516 1.125 0 .5712.03516 1.1337.04395.5538.11426 1.1163zm-11.101-2.25q0 1.1689.3252 2.25h3.1904q-.07031-.5625-.10547-1.1163-.03516-.5625-.03516-1.1337 0-.5713.03516-1.125.03516-.5625.10547-1.125h-3.1904q-.3252 1.081-.3252 2.25zm7.875-7.875q-.43066 0-.80859.2373-.36914.2373-.68555.624-.31641.3867-.57129.8789-.24609.4834-.43945.9844-.19336.5009-.3252.9668-.13184.4658-.20215.8086h6.0645q-.07031-.3428-.20215-.8086-.13184-.4659-.3252-.9668-.19336-.501-.44824-.9844-.24609-.4922-.5625-.8789-.31641-.3867-.69434-.624-.36914-.2373-.7998-.2373zm-2.5752.4306q-.73828.2549-1.415.6592-.67676.4043-1.2568.9228-.58008.5186-1.0547 1.1514-.47461.624-.80859 1.336h2.9268q.10547-.5274.24609-1.0635.14062-.5362.33398-1.0547.20215-.5274.45703-1.0195.25488-.4922.57129-.9317zm-4.5352 10.819q.33398.7119.80859 1.3447.47461.624 1.0547 1.1426.58008.5185 1.2568.9228.67676.4043 1.415.6592-.31641-.4395-.57129-.9317-.25488-.4921-.45703-1.0107-.19336-.5273-.33398-1.0635-.14062-.5361-.24609-1.0634zm9.6855 4.0693q.73828-.2549 1.415-.6592.67676-.4043 1.2568-.9228.58008-.5186 1.0547-1.1426.47461-.6328.80859-1.3447h-2.9268q-.10547.5273-.24609 1.0634-.14062.5362-.34277 1.0635-.19336.5186-.44824 1.0107-.25488.4922-.57129.9317z"/>
    <path d="m 92,1.96875 v 3.9375 h -2 v 10.125 h 18 v -10.125 h -2 v -3.9375 h -6 v 3.9375 h -2 v -3.9375 z m 1.125,1.125 h 3.75 v 2.8125 h -3.75 z m 8,0 h 3.75 v 2.8125 h -3.75 z m -10,3.9375 h 15.75 v 7.875 h -15.75 v -7.875"/>
    <path d="M 122.5205,0 H 112.39551 V 1.1249 H 122.5205 Z M 122.91601,7.4794 117.458,1.9775 112,7.4794 112.79101,8.2705 116.8955,4.1396 V 18 h 1.12501 V 4.1396 l 4.10448,4.1309 z"/>
    <path d="m144 17.385q0 .2461-.14941.4307-.14942.1846-.41309.1846-.22852 0-.39551-.167l-6.8994-6.8907q-.84375.6944-1.8545 1.0635-1.002.3692-2.1006.3692-.85254 0-1.6436-.2198-.79102-.2197-1.4766-.624-.68554-.4043-1.2568-.9668-.5625-.5713-.9668-1.2568-.4043-.6856-.62402-1.4766-.21973-.791-.21973-1.6435 0-.8526.21973-1.6436.21972-.791.62402-1.4766.4043-.6855.9668-1.248.57129-.5713 1.2568-.9756.68555-.4043 1.4766-.624.79101-.2197 1.6436-.2197t1.6436.2197q.79102.2197 1.4766.624.68554.4043 1.248.9756.57129.5625.97559 1.248.4043.6856.62402 1.4766.21973.791.21973 1.6436 0 1.0986-.36914 2.1093-.36914 1.002-1.0635 1.8457.13184.1319.50098.501.37793.3691.89648.8789.52735.5098 1.1426 1.125.62403.6065 1.248 1.2393.63281.624 1.2217 1.2217.58887.5976 1.0459 1.081t.72949.8086q.27246.3164.27246.3867zm-11.812-6.1347q1.0459 0 1.9688-.3956.92285-.4043 1.6084-1.0898t1.081-1.6084q.4043-.9228.4043-1.9687t-.4043-1.9688q-.3955-.9228-1.081-1.6084-.68555-.6855-1.6084-1.081-.92285-.4043-1.9688-.4043t-1.9688.4043q-.92285.3955-1.6084 1.081-.68555.6856-1.0898 1.6084-.39551.9229-.39551 1.9688t.39551 1.9687q.40429.9229 1.0898 1.6084t1.6084 1.0898q.92285.3956 1.9688.3956z"/>
    <path d="m162 2.1157h-12.998v-2.1157h12.998zm0 4.2316h-12.998v-2.105h12.998zm-16.011-4.2316h-1.9886v-2.1157h1.9886zm16.011 11.653h-12.998v-2.1265h12.998zm0 4.2315h-12.998v-2.1157h12.998zm-16.011-4.2315h-1.9886v-2.1265h1.9886z"/>
    <path d="m180 1.2876v11.25h-11.575l-4.1748 4.1748v-4.1748h-2.25v-11.25zm-1.125 1.1249h-15.75v9.0001h2.25v2.5751l2.5752-2.5751h10.925zm-12.375 5.625q-.2373 0-.43945-.088t-.36035-.2372q-.14942-.1582-.2373-.3604-.0879-.2021-.0879-.4394 0-.2374.0879-.4395.0879-.2022.2373-.3515.1582-.1582.36035-.2461.20215-.088.43945-.088t.43945.088.35157.2461q.1582.1493.24609.3515.0879.2021.0879.4395 0 .2373-.0879.4394-.0879.2022-.24609.3604-.14942.1494-.35157.2372-.20215.088-.43945.088zm4.5 0q-.23731 0-.43945-.088-.20215-.088-.36036-.2372-.14941-.1582-.2373-.3604-.0879-.2021-.0879-.4394 0-.2374.0879-.4395.0879-.2022.2373-.3515.15821-.1582.36036-.2461.20214-.088.43945-.088t.43945.088q.20215.088.35157.2461.15819.1493.24609.3515.0879.2021.0879.4395 0 .2373-.0879.4394-.0879.2022-.24609.3604-.14942.1494-.35157.2372-.20214.088-.43945.088zm4.5 0q-.2373 0-.43945-.088t-.36035-.2372q-.14942-.1582-.23731-.3604-.0879-.2021-.0879-.4394 0-.2374.0879-.4395.0879-.2022.23731-.3515.1582-.1582.36035-.2461.20215-.088.43945-.088t.43945.088.35156.2461q.15821.1493.24609.3515.0879.2021.0879.4395 0 .2373-.0879.4394-.0879.2022-.24609.3604-.14941.1494-.35156.2372-.20215.088-.43945.088z"/>
    <path d="m189 0q1.2393 0 2.3906.3251 1.1514.3165 2.1533.9053 1.002.5801 1.8193 1.4063.82617.8174 1.4062 1.8193.58887 1.002.90527 2.1533.3252 1.1514.3252 2.3907 0 1.2392-.3252 2.3906-.3164 1.1513-.90527 2.1533-.58008 1.002-1.4062 1.8281-.81738.8174-1.8193 1.4063-1.002.5801-2.1533.9052-1.1514.3165-2.3906.3165-.46582 0-.87891-.1758-.40429-.1846-.71191-.4834-.29883-.3076-.4834-.7119-.17578-.4131-.17578-.8789 0-.4307.0791-.7471.0879-.3252.21094-.5889.12305-.2637.27246-.4922t.27246-.457q.12305-.2373.20215-.4922.0879-.2637.0879-.5976 0-.4571-.18457-.8702-.17578-.413-.4834-.7119-.29883-.3076-.71191-.4834-.41309-.1845-.87012-.1845-.33398 0-.59766.088-.25488.079-.49218.2022-.22852.123-.45704.2725-.22851.1494-.49218.2724-.26367.1231-.58887.211-.3252.079-.74707.079-.46582 0-.87891-.1758-.40429-.1846-.71191-.4834-.29883-.3076-.4834-.7119-.17579-.4132-.17579-.879 0-1.2393.31641-2.3907.32519-1.1513.90527-2.1533.58887-1.0019 1.4062-1.8193.82617-.8262 1.8281-1.4063 1.002-.5888 2.1445-.9053 1.1514-.3251 2.3994-.3251zm0 16.875q1.081 0 2.083-.2813 1.0107-.2812 1.8809-.791.8789-.5186 1.5996-1.2393.7207-.7207 1.2305-1.5908.51855-.8789.7998-1.8808.28125-1.0108.28125-2.0918 0-1.0811-.28125-2.0831-.28125-1.0107-.7998-1.8808-.50977-.8789-1.2305-1.5996-.72071-.7207-1.5996-1.2305-.87012-.5185-1.8809-.7998-1.002-.2812-2.083-.2812t-2.0918.2812q-1.002.2813-1.8809.7998-.87011.5098-1.5908 1.2305-.7207.7207-1.2392 1.5996-.50977.8701-.79102 1.8808-.28125 1.002-.28125 2.0831 0 .2373.0879.4394.0879.2022.23731.3604.1582.1494.36035.2373.20215.088.43945.088.33398 0 .58887-.079.26367-.088.49218-.211.23731-.123.45704-.2724.22851-.1495.48339-.2725.26368-.1231.58887-.2022.3252-.088.76465-.088.70312 0 1.3184.2636.61523.2637 1.0723.7207.45704.4571.72071 1.0723t.26367 1.3184q0 .4306-.0879.7646-.0791.3252-.20215.5889-.12305.2549-.27246.4834-.14941.2197-.27246.457-.12305.2285-.21094.4922-.0791.2549-.0791.5889 0 .2373.0879.4394.0879.2022.23731.3604.1582.1494.36035.2373.20215.088.43945.088zm-4.5-11.25q.2373 0 .43945.088t.35157.2461q.1582.1495.24609.3516.0879.2021.0879.4395 0 .2373-.0879.4394-.0879.2022-.24609.3604-.14942.1494-.35157.2373-.20215.088-.43945.088t-.43945-.088-.36035-.2373q-.14942-.1582-.23731-.3604-.0879-.2021-.0879-.4394 0-.2374.0879-.4395t.23731-.3516q.1582-.1582.36035-.2461.20215-.088.43945-.088zm3.375-2.25q.2373 0 .43945.088t.35157.2461q.1582.1495.24609.3516.0879.2021.0879.4395 0 .2373-.0879.4394-.0879.2022-.24609.3604-.14942.1494-.35157.2373-.20215.088-.43945.088t-.43945-.088-.36035-.2373q-.14942-.1582-.23731-.3604-.0879-.2021-.0879-.4394 0-.2374.0879-.4395t.23731-.3516q.1582-.1582.36035-.2461.20215-.088.43945-.088zm4.5 3.375q-.2373 0-.43945-.088t-.36035-.2373q-.14942-.1582-.23731-.3604-.0879-.2021-.0879-.4394 0-.2374.0879-.4395t.23731-.3516q.1582-.1582.36035-.2461.20215-.088.43945-.088t.43945.088.35157.2461q.1582.1495.24609.3516.0879.2021.0879.4395 0 .2373-.0879.4394-.0879.2022-.24609.3604-.14942.1494-.35157.2373-.20215.088-.43945.088zm1.125 2.25q.2373 0 .43945.088t.35157.2461q.1582.1495.24609.3516.0879.2021.0879.4395 0 .2373-.0879.4394-.0879.2022-.24609.3604-.14942.1494-.35157.2373-.20215.088-.43945.088t-.43945-.088-.36035-.2373q-.14942-.1582-.23731-.3604-.0879-.2021-.0879-.4394 0-.2374.0879-.4395t.23731-.3516q.1582-.1582.36035-.2461.20215-.088.43945-.088zm-2.25 3.375q.2373 0 .43945.088t.35157.2461q.1582.1495.24609.3516.0879.2021.0879.4395 0 .2373-.0879.4394-.0879.2022-.24609.3604-.14942.1494-.35157.2373-.20215.088-.43945.088t-.43945-.088-.36035-.2373q-.14942-.1582-.23731-.3604-.0879-.2021-.0879-.4394 0-.2374.0879-.4395t.23731-.3516q.1582-.1582.36035-.2461.20215-.088.43945-.088z"/>
  </g>
</defs>
<use id="state"             xlink:href="#category-icons"/>
<use id="state-active"      xlink:href="#category-icons"/>
</svg>
