<svg width="128" height="128" version="1.1" viewBox="0 0 128 128" xmlns="http://www.w3.org/2000/svg">
    <path d="m47.36 49.349q-.4523-.8128-1.1385-1.3376-.68617-.5247-1.5294-.7649-.7963-.2269-1.6559-.1425-.85957.085-1.6719.537-.81242.4525-1.337 1.139-.52455.6865-.78136 1.4999-.20999.8268-.12559 1.6867.08441.86.53673 1.6728l3.2166 5.7797-15.406 8.5805-6.4332-11.56-1.9257 1.0726q-1.5947.8882-3.344 1.0739-1.7191.1688-3.3586-.2981-1.6394-.4671-3.0286-1.5468-1.3724-1.0495-2.2602-2.6449-.88784-1.5955-1.0734-3.3455-.16879-1.7199.29798-3.3601.4668-1.6403 1.5159-3.0132 1.0792-1.3897 2.674-2.278l1.9257-1.0726-6.4332-11.56 11.555-6.4354-1.0721-1.9266q-.88784-1.5954-1.0734-3.3454-.16879-1.72.29798-3.3602.4668-1.6402 1.5159-3.0131 1.0792-1.3898 2.674-2.2781 1.5947-.8882 3.3138-1.0571 1.7493-.1856 3.3887.2814 1.6395.467 3.0118 1.5166 1.3891 1.0796 2.277 2.6751l1.0721 1.9266 11.555-6.4354 6.4332 11.56 1.9257-1.0726q1.5947-.8882 3.3138-1.0571 1.7493-.1856 3.3887.2814 1.6395.467 3.0118 1.5166 1.3891 1.0796 2.277 2.6751t1.0567 3.3154q.18558 1.7501-.28124 3.3902-.4668 1.6402-1.546 3.0299-1.0491 1.3731-2.6438 2.2613l-1.9257 1.0726 6.4332 11.56-15.406 8.5805zm-11.555 6.4354q-.88788-1.5955-1.0734-3.3455-.1688-1.7199.29798-3.3601.4668-1.6402 1.5159-3.0132 1.0792-1.3897 2.674-2.278t3.3139-1.0571q1.7493-.1857 3.3887.2813 1.6395.467 3.0118 1.5166 1.3891 1.0796 2.277 2.6751l1.0721 1.9266 7.7027-4.2907-6.4332-11.56 5.7773-3.2176q.81241-.4525 1.337-1.1391.52454-.6865.73446-1.5132.25684-.8134.17242-1.6734-.08441-.86-.53674-1.6728-.4523-.8128-1.1385-1.3375-.68618-.5248-1.5294-.765-.7963-.2268-1.6559-.1424-.85958.084-1.6719.5369l-5.7773 3.2177-6.4332-11.56-11.555 6.4354-3.2166-5.7797q-.4523-.8127-1.1385-1.3375-.68618-.5248-1.5294-.765-.7963-.2268-1.6559-.1424-.85958.084-1.6719.5369-.81242.4526-1.337 1.1391-.52454.6865-.78136 1.4999-.20997.8268-.12559 1.6867.08441.86.53673 1.6728l3.2166 5.7797-11.555 6.4354 6.4332 11.56-5.7773 3.2177q-.81242.4525-1.337 1.139-.52454.6865-.78136 1.4999-.20998.8268-.12559 1.6867.08441.86.53673 1.6728.4523.8128 1.1385 1.3375.6862.5248 1.4825.7516.84315.2402 1.7028.1557.85958-.084 1.6719-.5369l5.7773-3.2176 6.4332 11.56 7.7027-4.2908z"/>
    <path d="m75.875 63.907q.86945.4023 1.7603.4257.8909.023 1.7409-.2832.80287-.2895 1.4705-.8749.66761-.5854 1.0733-1.4475.40569-.8621.42925-1.7454.02358-.8833-.25342-1.7113-.32419-.8109-.91453-1.473-.59038-.6619-1.4598-1.0642l-6.1827-2.8604 7.6933-16.348 12.365 5.7208.96165-2.0434q.79637-1.6923 2.1466-2.895 1.3352-1.1707 2.9882-1.7668 1.6529-.5961 3.4669-.5344 1.7817.047 3.4885.8363 1.7067.7897 2.9196 2.1284 1.1807 1.324 1.782 2.963.60114 1.6388.554 3.4057-.0622 1.7986-.85852 3.4908l-.96166 2.0435 12.365 5.7209-5.7697 12.26 2.0609.9535q1.7067.7896 2.9196 2.1284 1.1807 1.324 1.7819 2.9629.60113 1.6389.55399 3.4057-.0622 1.7987-.85851 3.4908-.79637 1.6924-2.1316 2.8631-1.3502 1.2027-3.0032 1.7987-1.653.596-3.4348.5493-1.814-.062-3.5206-.8512l-2.0609-.9535-5.7697 12.26-12.365-5.7209-.96165 2.0435q-.79637 1.6923-2.1316 2.8631-1.3503 1.2027-3.0032 1.7987-1.653.596-3.4348.5493-1.814-.062-3.5207-.8512-1.7067-.7896-2.8874-2.1136-1.213-1.3388-1.8141-2.9777-.60119-1.6391-.53898-3.4377.04713-1.7666.84351-3.4589l.96166-2.0435-12.365-5.7208 7.6933-16.348zm5.7697-12.26q1.7067.7896 2.9196 2.1285 1.1807 1.3238 1.7819 2.9628.60123 1.639.554 3.4057-.06219 1.7987-.85853 3.4909-.79637 1.6922-2.1316 2.863-1.3503 1.2028-3.0032 1.7988-1.6529.596-3.4348.5493-1.814-.062-3.5207-.8513l-2.0609-.9535-3.8466 8.1739 12.365 5.7208-2.8849 6.1305q-.4057.862-.42925 1.7454-.02358.8833.30063 1.6942.27697.8281.86731 1.49.59038.662 1.4598 1.0642.86943.4023 1.7603.4257.89091.023 1.741-.2832.80286-.2895 1.4705-.8749.6676-.5853 1.0733-1.4474l2.8849-6.1305 12.365 5.7209 5.7697-12.26 6.1827 2.8605q.86945.4023 1.7603.4257.89091.023 1.741-.2832.80286-.2896 1.4705-.8749.66761-.5854 1.0733-1.4474.40569-.8621.42926-1.7454.0236-.8835-.25342-1.7114-.32419-.811-.91462-1.4729-.59037-.662-1.4598-1.0642l-6.1827-2.8606 5.7697-12.26-12.365-5.721 2.8849-6.1303q.40569-.8621.42926-1.7454.0236-.8834-.25342-1.7114-.32418-.811-.91461-1.4729-.59038-.662-1.4598-1.0642-.86944-.4023-1.7603-.4256-.89089-.023-1.6937.2661-.8501.3066-1.5177.8919-.66762.5854-1.0733 1.4474l-2.8849 6.1305-12.365-5.721-3.8466 8.1739z"/>
    <path d="m25.059 91.994q.58565.4691 1.2583.6517.67261.1827 1.3757.1049.66407-.073 1.2805-.3985.61648-.3252 1.0855-.9108.46906-.5857.65172-1.2583.18266-.6726.1266-1.3583-.09509-.6814-.42023-1.298-.32516-.6164-.91082-1.0855l-4.1646-3.3354 8.8947-11.106 8.329 6.6708 1.1118-1.3882q.92073-1.1496 2.1711-1.8216 1.233-.6504 2.6001-.8016 1.3672-.1511 2.7341.2316 1.3452.3655 2.4948 1.2862t1.8216 2.171q.65034 1.2329.80149 2.6001.15114 1.3673-.21422 2.7125-.3827 1.3669-1.3034 2.5165l-1.1118 1.3882 8.329 6.6709-6.6708 8.329 1.3882 1.1118q1.1496.9208 1.8216 2.1711.65034 1.233.80149 2.6002.15114 1.3672-.21421 2.7124-.38271 1.3669-1.3034 2.5165-.92073 1.1496-2.1537 1.8-1.2503.672-2.6175.8231-1.3672.1512-2.7124-.2142-1.3669-.3827-2.5165-1.3034l-1.3882-1.1118-6.6708 8.3289-8.329-6.6708-1.1118 1.3882q-.92073 1.1496-2.1537 1.7999-1.2503.6721-2.6175.8233-1.3672.1511-2.7124-.2142-1.3669-.3828-2.5165-1.3036-1.1496-.9207-1.7999-2.1536-.67203-1.2503-.82318-2.6175-.15113-1.3673.23158-2.7342.36534-1.3452 1.2861-2.4948l1.1118-1.3882-8.329-6.6709 8.8947-11.106zm6.6708-8.329q1.1496.9207 1.8216 2.1711.65034 1.2329.80149 2.6002.15113 1.3671-.21421 2.7123-.3827 1.367-1.3034 2.5165-.92073 1.1497-2.1537 1.8-1.2503.6721-2.6175.8232-1.3672.1511-2.7124-.2142-1.3669-.3827-2.5165-1.3034l-1.3882-1.112-4.4473 5.5529 8.329 6.6708-3.3355 4.1646q-.46906.5857-.65172 1.2583-.18266.6726-.08753 1.3541.05603.6857.38117 1.3022.32517.6164.91082 1.0855.58565.469 1.2583.6517.67261.1827 1.3757.1049.66407-.073 1.2805-.3985.61647-.3252 1.0855-.9108l3.3355-4.1647 8.329 6.6709 6.6708-8.329 4.1646 3.3355q.58565.469 1.2583.6518.6726.1826 1.3757.1049.66407-.073 1.2805-.3987.61648-.3251 1.0855-.9108.46906-.5856.65172-1.2582.18266-.6726.1266-1.3583-.0951-.6815-.42023-1.2979-.32517-.6165-.91082-1.0855l-4.1646-3.3356 6.6708-8.3289-8.329-6.6709 3.3355-4.1646q.46906-.5856.65173-1.2582.18266-.6726.12666-1.3585-.09511-.6815-.42023-1.2979-.32516-.6165-.91081-1.0855-.58564-.4691-1.2583-.6517-.6726-.1827-1.3366-.1092-.70314.078-1.3196.4029-.61647.3251-1.0855.9108l-3.3355 4.1646-8.329-6.6709-4.4473 5.5529z"/>
</svg>
