<?xml version="1.0" encoding="UTF-8"?>
<svg width="64" height="64" version="1.1" viewBox="0 0 64 64" xmlns="http://www.w3.org/2000/svg">
 <path d="m52.267 27.733q-0.9 0-1.6667 0.3333t-1.3667 0.9333q-0.56667 0.5667-0.9 1.3334-0.33333 0.7666-0.33333 1.6666t0.33333 1.6667q0.33333 0.7667 0.9 1.3667 0.6 0.5666 1.3667 0.9 0.76667 0.3333 1.6667 0.3333h6.4v17.067h-12.8v2.1333q0 1.7667-0.66667 3.3333-0.66667 1.5334-1.8333 2.7-1.1667 1.1667-2.7333 1.8334-1.5333 0.6666-3.3 0.6666-1.7667 0-3.3333-0.6666-1.5333-0.6667-2.7-1.8334-1.1667-1.1666-1.8333-2.7-0.66667-1.5666-0.66667-3.3333v-2.1333h-12.8v-12.8h-2.1333q-1.7667 0-3.3333-0.6667-1.5333-0.6667-2.7-1.8333-1.1667-1.1667-1.8333-2.7-0.66667-1.5667-0.66667-3.3334 0-1.7666 0.66667-3.3 0.66667-1.5666 1.8333-2.7333 1.1667-1.1667 2.7-1.8333 1.5667-0.6667 3.3333-0.6667h2.1333v-12.8h12.8v-2.1333q0-1.7667 0.66667-3.3 0.66667-1.5667 1.8333-2.7334 1.1667-1.1666 2.7-1.8333 1.5667-0.6667 3.3333-0.6667 1.7667 0 3.3 0.6667 1.5667 0.6667 2.7333 1.8333 1.1667 1.1667 1.8333 2.7334 0.66667 1.5333 0.66667 3.3v2.1333h12.8v17.067zm0 12.8q-1.7667 0-3.3333-0.6667-1.5333-0.6667-2.7-1.8333-1.1667-1.1667-1.8333-2.7-0.66667-1.5667-0.66667-3.3334 0-1.7666 0.66667-3.3 0.66667-1.5666 1.8333-2.7333t2.7-1.8333q1.5667-0.6667 3.3333-0.6667h2.1333v-8.5333h-12.8v-6.4q0-0.9-0.33333-1.6667-0.33333-0.7667-0.93333-1.3333-0.56667-0.6-1.3333-0.9334-0.76667-0.3333-1.6667-0.3333t-1.6667 0.3333q-0.76667 0.3334-1.3667 0.9334-0.56667 0.5666-0.9 1.3333t-0.33333 1.6667v6.4h-12.8v12.8h-6.4q-0.9 0-1.6667 0.3333t-1.3667 0.9333q-0.56667 0.5667-0.9 1.3334-0.33333 0.7666-0.33333 1.6666t0.33333 1.6667q0.33333 0.7667 0.9 1.3667 0.6 0.5666 1.3667 0.9 0.76667 0.3333 1.6667 0.3333h6.4v12.8h12.8v6.4q0 0.9 0.33333 1.6667 0.33333 0.7666 0.9 1.3666 0.6 0.5667 1.3667 0.9 0.76667 0.3334 1.6667 0.3334t1.6667-0.3334q0.76667-0.3333 1.3333-0.9 0.6-0.6 0.93333-1.3666 0.33333-0.7667 0.33333-1.6667v-6.4h12.8v-8.5333z"/>
</svg>
