<svg width="32" height="32" version="1.1" viewBox="0 0 32 32" xmlns="http://www.w3.org/2000/svg">
 <path d="m16 32q0-2.21-.562-4.25-.583-2.04-1.63-3.81-1.04-1.79-2.5-3.25-1.46-1.46-3.23-2.5-1.79-1.04-3.83-1.6-2.04-.583-4.25-.583v2.67q1.83 0 3.54.479 1.71.479 3.19 1.35 1.48.854 2.71 2.08 1.21 1.21 2.08 2.69.854 1.48 1.33 3.19.479 1.71.479 3.54zm8 0q0-3.31-.854-6.38-.854-3.08-2.42-5.75-1.56-2.67-3.75-4.85t-4.85-3.75q-2.67-1.56-5.73-2.42-3.08-.854-6.4-.854v2.67q2.94 0 5.67.771 2.71.75 5.08 2.15 2.38 1.4 4.33 3.35 1.94 1.94 3.33 4.31 1.4 2.38 2.17 5.1.75 2.71.75 5.65zm8 0q0-4.42-1.15-8.5-1.15-4.08-3.23-7.65-2.08-3.56-5-6.48-2.92-2.92-6.48-5t-7.65-3.23q-4.08-1.15-8.5-1.15v2.67q4.04 0 7.79 1.06 3.73 1.04 7 2.96 3.25 1.9 5.94 4.58 2.69 2.69 4.6 5.96 1.9 3.25 2.96 7 1.04 3.73 1.04 7.77zm-28-8q-.833 0-1.56.312t-1.27.854q-.542.542-.854 1.27t-.312 1.56.312 1.56.854 1.27q.542.542 1.27.854t1.56.312q.833 0 1.56-.312.729-.312 1.27-.854.542-.542.854-1.27t.312-1.56-.312-1.56-.854-1.27q-.542-.542-1.27-.854-.729-.312-1.56-.312z"/>
</svg>
