<svg width="64" height="16" version="1.1" viewBox="0 0 64 16" xmlns="http://www.w3.org/2000/svg" xmlns:xlink="http://www.w3.org/1999/xlink">
<style>
  use:not(:target) {
    display: none;
  }

  use {
    fill: #000;
  }

  use[id$="-inverted"] {
    fill: #fff;
  }
</style>
<defs>
 <g id="close">
    <path class="intial" id="intial" d="m13 3.5326-4.4675 4.4674 4.4675 4.4674-.53254.53254-4.4675-4.4674-4.4675 4.4674-.53254-.53254 4.4675-4.4674-4.4675-4.4674.53254-.53256 4.4675 4.4674 4.4675-4.4674z"/>
    <path id="hover" d="m29 3.5325-4.4675 4.4675 4.4675 4.4675-.53254.53254-4.4675-4.4675-4.4675 4.4675-.53254-.53254 4.4675-4.4675-4.4675-4.4675.53254-.53254 4.4675 4.4675 4.4675-4.4675z" fill="#fe1c1c"/>
    <path id="active" d="m45 3.5325-4.4675 4.4675 4.4675 4.4675-.53254.53254-4.4675-4.4675-4.4675 4.4675-.53254-.53254 4.4675-4.4675-4.4675-4.4675.53254-.53254 4.4675 4.4675 4.4675-4.4675z" fill="#b31d1d"/>
    <path id="inactive" d="m61 3.5325-4.4675 4.4675 4.4675 4.4675-.53255.53254-4.4675-4.4675-4.4675 4.4675-.53254-.53254 4.4675-4.4675-4.4675-4.4675.53254-.53254 4.4675 4.4675 4.4675-4.4675z" fill="#939393" opacity="0"/>
 </g>
</defs>
<use id="state" xlink:href="#close"/>
<use id="state-inverted" xlink:href="#close"/>
</svg>
