<?xml version="1.0" encoding="UTF-8"?>
<svg width="64" height="16" version="1.1" viewBox="0 0 16.933 4.2333" xmlns="http://www.w3.org/2000/svg">
 <g transform="translate(0 -292.77)">
  <g transform="matrix(.625 0 0 .625 .79375 110.58)">
   <path d="m4.2333 292.99-1.8912 1.8912 1.8912 1.8912-.22544.22544-1.8912-1.8912-1.8912 1.8912-.22544-.22544 1.8912-1.8912-1.8912-1.8912.22544-.22545 1.8912 1.8912 1.8912-1.8912z" stroke-width=".12825"/>
  </g>
  <g transform="matrix(.625 0 0 .625 2.3813 110.58)" fill="#fe1c1c">
   <path d="m8.4667 292.99-1.8912 1.8912 1.8912 1.8912-.22544.22544-1.8912-1.8912-1.8912 1.8912-.22544-.22544 1.8912-1.8912-1.8912-1.8912.22544-.22544 1.8912 1.8912 1.8912-1.8912z" fill="#fe1c1c" stroke-width=".12825"/>
  </g>
  <g transform="matrix(.625 0 0 .625 3.9688 110.58)" fill="#b31d1d">
   <path d="m12.7 292.99-1.8912 1.8912 1.8912 1.8912-.22544.22544-1.8912-1.8912-1.8912 1.8912-.22544-.22544 1.8912-1.8912-1.8912-1.8912.22544-.22544 1.8912 1.8912 1.8912-1.8912z" fill="#b31d1d" stroke-width=".12825"/>
  </g>
  <g transform="matrix(.625 0 0 .625 5.5562 110.58)" fill="#939393">
   <path d="m16.933 292.99-1.8912 1.8912 1.8912 1.8912-.22544.22544-1.8912-1.8912-1.8912 1.8912-.22544-.22544 1.8912-1.8912-1.8912-1.8912.22544-.22544 1.8912 1.8912 1.8912-1.8912z" fill="#939393" stroke-width=".12825"/>
  </g>
 </g>
</svg>
