<svg width="80" height="80" version="1.1" viewBox="0 0 80 80" xmlns="http://www.w3.org/2000/svg">
    <path d="m16.016 56.992q1.25 0 2.3438.50781 1.0938.46875 1.875 1.2891.82031.82031 1.2891 1.9141t.46875 2.3047q0 1.25-.46875 2.3438-.46875 1.0547-1.2891 1.875-.82031.82031-1.9141 1.2891t-2.3047.46875q-1.25 0-2.3438-.46875t-1.9141-1.25q-.82031-.82031-1.2891-1.9141t-.46875-2.3438.46875-2.3438 1.2891-1.9141q.82031-.82031 1.9141-1.2891t2.3438-.46875zm0 10q.82031 0 1.5234-.3125.74219-.3125 1.2891-.85938t.85938-1.25q.3125-.74219.3125-1.5625 0-.82031-.3125-1.5234-.3125-.74219-.85938-1.2891-.54688-.58594-1.2891-.89844-.70312-.3125-1.5234-.3125t-1.5625.3125q-.74219.3125-1.2891.85938t-.85938 1.2891q-.3125.74219-.3125 1.5625 0 .82031.3125 1.5625.3125.70312.85938 1.25.58594.54688 1.2891.85938.74219.3125 1.5625.3125zm-12.5 6.0156q1.4453 0 2.4609 1.0156t1.0156 2.4609q0 1.4453-1.0156 2.5-1.0156 1.0156-2.4609 1.0156-1.4844 0-2.5-1.0156t-1.0156-2.5q0-1.4453 1.0156-2.4609 1.0547-1.0156 2.5-1.0156zm0 5q.66406 0 1.0547-.42969.42969-.46875.42969-1.0938t-.42969-1.0547q-.42969-.42969-1.0547-.42969t-1.0938.42969q-.42969.39062-.42969 1.0547 0 .66406.42969 1.0938.42969.42969 1.0938.42969zm54.609-72.812q3.0078 0 5.7812.78125 2.8125.78125 5.2344 2.1875t4.4141 3.3984q2.0312 1.9922 3.4375 4.4141 1.4453 2.4219 2.2266 5.2344.78125 2.7734.78125 5.7812 0 4.5312-1.7188 8.5156-1.7188 3.9453-4.6875 6.9141t-6.9531 4.6875q-3.9844 1.6797-8.5156 1.6797h-1.4453q-2.9688 2.5-6.6406 3.8672-3.6328 1.3281-7.5391 1.3281-2.8516 0-5.5859-.70312-2.6953-.70312-5.1172-2.0312-2.3828-1.3672-4.4141-3.2812-2.0312-1.9531-3.5156-4.375h-2.2266q-3.4375 0-6.4844-1.2891-3.0078-1.3281-5.2734-3.5547-2.2656-2.2656-3.5938-5.2734-1.2891-3.0469-1.2891-6.4844t1.2891-6.4453q1.3281-3.0469 3.5938-5.2734 2.2656-2.2656 5.2734-3.5547 3.0469-1.3281 6.4844-1.3281h3.75q1.2109-2.3828 3.0078-4.2969 1.8359-1.9531 4.0625-3.2812 2.2266-1.3672 4.7656-2.0703 2.5781-.74219 5.2734-.74219 3.6719 0 7.0703 1.3281 3.3984 1.3281 6.0938 3.8672zm0 41.602q4.1016 0 7.6953-1.5234 3.6328-1.5625 6.3281-4.2578 2.7344-2.6953 4.2969-6.2891 1.5625-3.6328 1.5625-7.7344 0-4.1016-1.5625-7.6953-1.5625-3.6328-4.2969-6.2891-2.6953-2.6953-6.3281-4.2578-3.5938-1.5625-7.6953-1.5625h-3.2812q-1.1328-1.25-2.5781-2.1875-1.4453-.97656-3.0859-1.6406-1.6016-.66406-3.3203-1.0156-1.6797-.35156-3.3594-.35156-2.6562 0-5.0781.74219-2.3828.74219-4.4141 2.1094-1.9922 1.3281-3.6328 3.2812-1.6016 1.9141-2.7344 4.2578h-5q-3.0078 0-5.7031 1.1719-2.6562 1.1328-4.6484 3.125-1.9922 1.9531-3.1641 4.6094-1.1328 2.6562-1.1328 5.7031t1.1328 5.7031q1.1719 2.6562 3.1641 4.6484 1.9922 1.9531 4.6484 3.125 2.6953 1.1328 5.7031 1.1328h3.3594q2.9297 4.8047 7.3438 7.6172 4.4141 2.7734 10.156 2.7734 3.7109 0 6.9922-1.25 3.3203-1.2891 6.1328-3.6719l.27344-.27344z"/>
</svg>
