<?xml version="1.0" encoding="UTF-8"?>
<svg width="64" height="64" version="1.1" viewBox="0 0 16.933 16.933" xmlns="http://www.w3.org/2000/svg">
    <g transform="translate(0 -280.07)">
        <g aria-label="">
            <path d="m12.435 281.12q.93431 0 1.7529.35554.81855.34726 1.4304.95911t.95912 1.4304q.35553.81856.35553 1.7529 0 .90124-.34726 1.7281-.339.81855-.96738 1.4469l-7.152 7.152-7.152-7.152q-.62839-.62839-.97565-1.4469-.339-.82682-.339-1.7281 0-.93431.34727-1.7529.35553-.81855.96738-1.4304.61185-.61185 1.4304-.95911.81855-.35554 1.7529-.35554.91777 0 1.7198.339.81029.33073 1.4635.97565.19844.19017.38861.38861.19844.19843.39688.39687.19844-.19844.38861-.39687.19844-.19844.39688-.38861.65319-.64492 1.4552-.97565.81029-.339 1.7281-.339zm2.4309 6.9288q.48783-.48783.74414-1.1162.25632-.62839.25632-1.3146 0-.71934-.27285-1.3394-.26458-.62839-.7276-1.0914-.46302-.47129-1.0914-.73587-.62012-.27285-1.3395-.27285-.69453 0-1.3146.25631-.62012.25632-1.1162.74414-.5457.53744-1.0666 1.0831-.51263.5457-1.0418 1.0914l3.175 3.175-2.497 2.4887-.74414-.74414 1.7446-1.7446-3.175-3.175 1.3477-1.356q-.21497-.19017-.41341-.40515-.19844-.21497-.40514-.41341-.49609-.48782-1.1162-.74414-.61185-.25631-1.3146-.25631-.71934 0-1.3477.27285-.62012.26458-1.0914.73587-.46302.46302-.73587 1.0914-.26458.62011-.26458 1.3394 0 .67799.26458 1.3146.26458.63665.74414 1.1162l6.3996 6.3996z" stroke-width=".42333"/>
        </g>
    </g>
</svg>
