<svg width="48" height="16" version="1.1" viewBox="0 0 48 16" xmlns="http://www.w3.org/2000/svg" xmlns:xlink="http://www.w3.org/1999/xlink">
<style>
  use:not(:target) {
    display: none;
  }

  use {
    fill: #000;
  }

  use[id$="-inverted"] {
    fill: #fff;
  }
</style>
<defs>
    <g id="search">
        <path id="normal" d="m10.5 0q.75781 0 1.4609.19532.70312.19531 1.3125.55468.60938.35938 1.1094.86719.50781.5.86719 1.1094.35938.60937.55469 1.3125.19531.70312.19531 1.4609 0 .75782-.19531 1.4609-.19531.70313-.55469 1.3125-.35938.60938-.86719 1.1172-.5.5-1.1094.85937-.60938.35938-1.3125.55469t-1.4609.19531q-.97656 0-1.875-.32812-.89062-.32813-1.6406-.94531l-6.1328 6.125q-.14844.14843-.35156.14843t-.35156-.14843q-.14844-.14844-.14844-.35157 0-.20312.14844-.35156l6.125-6.1328q-.61719-.75-.94531-1.6406-.32812-.89843-.32812-1.875 0-.75781.19531-1.4609.19531-.70313.55469-1.3125.35938-.60938.85938-1.1094.50781-.50781 1.1172-.86719.60938-.35937 1.3125-.55468.70312-.19532 1.4609-.19532zm0 10q.92969 0 1.75-.35156.82031-.35937 1.4297-.96875.60938-.60937.96094-1.4297.35938-.82031.35938-1.75 0-.92968-.35938-1.75-.35156-.82031-.96094-1.4297-.60938-.60938-1.4297-.96094-.82031-.35938-1.75-.35938-.92969 0-1.75.35938-.82031.35156-1.4297.96094-.60938.60937-.96875 1.4297-.35156.82032-.35156 1.75 0 .92969.35156 1.75.35938.82032.96875 1.4297.60938.60938 1.4297.96875.82031.35156 1.75.35156z"/>
        <path id="hover" d="m26.5 0q.75781 0 1.4609.19532.70312.19531 1.3125.55468.60938.35938 1.1094.86719.50781.5.86719 1.1094.35938.60937.55469 1.3125.19531.70312.19531 1.4609 0 .75782-.19531 1.4609-.19531.70313-.55469 1.3125-.35938.60938-.86719 1.1172-.5.5-1.1094.85937-.60938.35938-1.3125.55469t-1.4609.19531q-.97656 0-1.875-.32812-.89062-.32813-1.6406-.94531l-6.1328 6.125q-.14844.14843-.35156.14843t-.35156-.14843q-.14844-.14844-.14844-.35157 0-.20312.14844-.35156l6.125-6.1328q-.61719-.75-.94531-1.6406-.32812-.89843-.32812-1.875 0-.75781.19531-1.4609.19531-.70313.55469-1.3125.35938-.60938.85938-1.1094.50781-.50781 1.1172-.86719.60938-.35937 1.3125-.55468.70312-.19532 1.4609-.19532zm0 10q.92969 0 1.75-.35156.82031-.35937 1.4297-.96875.60938-.60937.96094-1.4297.35938-.82031.35938-1.75 0-.92968-.35938-1.75-.35156-.82031-.96094-1.4297-.60938-.60938-1.4297-.96094-.82031-.35938-1.75-.35938-.92969 0-1.75.35938-.82031.35156-1.4297.96094-.60938.60937-.96875 1.4297-.35156.82032-.35156 1.75 0 .92969.35156 1.75.35938.82032.96875 1.4297.60938.60938 1.4297.96875.82031.35156 1.75.35156z" fill="#4d4d4d"/>
        <path id="active" d="m42.5 0q.75781 0 1.4609.19532.70312.19531 1.3125.55468.60938.35938 1.1094.86719.50781.5.86719 1.1094.35938.60937.55469 1.3125.19531.70312.19531 1.4609 0 .75782-.19531 1.4609-.19531.70313-.55469 1.3125-.35938.60938-.86719 1.1172-.5.5-1.1094.85937-.60938.35938-1.3125.55469t-1.4609.19531q-.97656 0-1.875-.32812-.89062-.32813-1.6406-.94531l-6.1328 6.125q-.14844.14843-.35156.14843t-.35156-.14843q-.14844-.14844-.14844-.35157 0-.20312.14844-.35156l6.125-6.1328q-.61719-.75-.94531-1.6406-.32812-.89843-.32812-1.875 0-.75781.19531-1.4609.19531-.70313.55469-1.3125.35938-.60938.85938-1.1094.50781-.50781 1.1172-.86719.60938-.35937 1.3125-.55468.70312-.19532 1.4609-.19532zm0 10q.92969 0 1.75-.35156.82031-.35937 1.4297-.96875.60938-.60937.96094-1.4297.35938-.82031.35938-1.75 0-.92968-.35938-1.75-.35156-.82031-.96094-1.4297-.60938-.60938-1.4297-.96094-.82031-.35938-1.75-.35938-.92969 0-1.75.35938-.82031.35156-1.4297.96094-.60938.60937-.96875 1.4297-.35156.82032-.35156 1.75 0 .92969.35156 1.75.35938.82032.96875 1.4297.60938.60938 1.4297.96875.82031.35156 1.75.35156z"/>
    </g>
</defs>
<use id="state" xlink:href="#search"/>
<use id="state-inverted" xlink:href="#search"/>
</svg>
