<svg width="75" height="80" version="1.1" viewBox="0 0 75 80" xmlns="http://www.w3.org/2000/svg">
    <path d="m51.328 26.369-2.6562-2.6602-11.172 11.188-11.172-11.188-2.6562 2.6602 11.172 11.188-11.172 11.188 2.6562 2.6602 11.172-11.188 11.094 11.11 2.6563-2.6602-11.094-11.11zm-13.828 53.631q-4.6485-2.7384-9.2577-5.8289-4.5703-3.1296-8.7501-6.6897-4.1407-3.599-7.7344-7.6677-3.5547-4.0684-6.1719-8.7236-2.6172-4.6552-4.1016-9.8971-1.4844-5.2422-1.4844-11.149v-20.029q3.2422 0 6.2889-.2348 3.0469-.2348 5.9375-.86064 2.8907-.62593 5.703-1.7604t5.6252-2.9339q3.3203-2.1516 6.6409-3.1687 3.3203-1.0562 7.3046-1.0562 1.9922 0 3.7891.27401 1.7969.2348 3.4766.7824 1.7188.50853 3.3594 1.3301 1.6407.7824 3.3203 1.8386 2.8125 1.7995 5.6252 2.9339 2.8127 1.1345 5.703 1.7604 2.8907.62589 5.9375.86064 3.0469.2348 6.2889.2348v20.029q0 5.9069-1.4844 11.149-1.4844 5.2422-4.1016 9.8971-2.6172 4.6553-6.2111 8.7236-3.5547 4.0684-7.7344 7.6677-4.1407 3.5599-8.7501 6.6897-4.5703 3.0904-9.219 5.8289zm-32.5-65.055v15.1q0 4.9682 1.2891 9.5451 1.3281 4.577 3.5938 8.7236 2.2656 4.1076 5.3907 7.8241 3.125 3.6772 6.7187 6.9633 3.5938 3.2469 7.5391 6.0245 3.9844 2.7775 7.9688 5.0853 3.9844-2.3081 7.9297-5.0853 3.9844-2.7775 7.5782-6.0245 3.5938-3.286 6.7187-6.9633 3.125-3.7163 5.3907-7.8241 2.2656-4.1467 3.5547-8.7236 1.3281-4.577 1.3281-9.5451v-15.1q-5.8205-.31275-11.172-1.8777-5.3124-1.5648-10.235-4.7334-2.6563-1.7212-5.3124-2.5036-2.6172-.82152-5.7813-.82152-3.1641 0-5.8205.82152-2.6172.7824-5.2732 2.5036-4.9218 3.1687-10.273 4.7334-5.3124 1.5648-11.133 1.8777z" fill="#a90000"/>
</svg>
