<svg width="48" height="16" version="1.1" viewBox="0 0 12.7 4.2333" xmlns="http://www.w3.org/2000/svg">
    <g transform="translate(0 -292.77)">
        <g fill="#107c10">
            <path transform="matrix(.26458 0 0 .26458 0 292.77)" d="m8 0c-.56771 0-1.0964.1069-1.5859.32031-.48437.21354-.90625.50521-1.2656.875-.35938.36979-.64063.80208-.84375 1.2969s-.30469 1.0234-.30469 1.5859v2.9219h-2v9h12v-9h-2v-2.9219c0-.56249-.10156-1.0911-.30469-1.5859-.20312-.49479-.48438-.92709-.84375-1.2969-.35938-.36966-.78385-.66133-1.2734-.875-.48437-.21342-1.0104-.32031-1.5781-.32031zm0 1c.42708 0 .82292.080676 1.1875.24219.36979.16146.6875.38282.95312.66406.27083.28125.48177.60937.63281.98438.15104.36979.22656.76563.22656 1.1875v2.9219h-6v-2.9219c0-.42187.07552-.81771.22656-1.1875.15104-.375.35937-.70313.625-.98438.27083-.2812.58854-.50255.95312-.66406.36979-.16151.76823-.24219 1.1953-.24219z" fill="#107c10" />
        </g>
        <g fill="#0c5c0c">
            <path transform="matrix(.26458 0 0 .26458 0 292.77)" d="m24 0c-.56771 0-1.0964.1069-1.5859.32031-.48437.21354-.90625.50521-1.2656.875-.35938.36979-.64063.80208-.84375 1.2969-.20312.49479-.30469 1.0234-.30469 1.5859v2.9219h-2v9h12v-9h-2v-2.9219c0-.56249-.10156-1.0911-.30469-1.5859-.20312-.49479-.48437-.92709-.84375-1.2969-.35937-.36966-.78385-.66133-1.2734-.875-.48438-.21342-1.0104-.32031-1.5781-.32031zm0 1c.42708 0 .82292.080676 1.1875.24219.36979.16146.6875.38282.95312.66406.27083.28125.48177.60937.63281.98438.15104.36979.22656.76563.22656 1.1875v2.9219h-6v-2.9219c0-.42187.07552-.81771.22656-1.1875.15104-.375.35938-.70313.625-.98438.27083-.2812.58854-.50255.95313-.66406.36979-.16151.76823-.24219 1.1953-.24219z" fill="#0c5c0c" />
        </g>
        <g fill="#094209">
            <path transform="matrix(.26458 0 0 .26458 0 292.77)" d="m40 0c-.56771 0-1.0964.1069-1.5859.32031-.48437.21354-.90625.50521-1.2656.875-.35938.36979-.64063.80208-.84375 1.2969-.20312.49479-.30469 1.0234-.30469 1.5859v2.9219h-2v9h12v-9h-2v-2.9219c0-.56249-.10158-1.0911-.30469-1.5859-.20312-.49479-.48437-.92709-.84375-1.2969-.35938-.36966-.78385-.66133-1.2734-.875-.48437-.21342-1.0104-.32031-1.5781-.32031zm0 1c.42708 0 .82292.080676 1.1875.24219.36979.16146.6875.38282.95312.66406.27082.28125.48176.60937.63281.98438.15106.36979.22656.76563.22656 1.1875v2.9219h-6v-2.9219c0-.42187.07552-.81771.22656-1.1875.15104-.375.35938-.70313.625-.98438.27083-.2812.58854-.50255.95313-.66406.36979-.16151.76823-.24219 1.1953-.24219z" fill="#094209" />
        </g>
    </g>
</svg>
