<svg width="16" height="16" version="1.1" viewBox="0 0 16 16" xmlns="http://www.w3.org/2000/svg">
    <g fill="#303030">
        <path d="M 7.9999999,16 C 7.261111,16 6.5499998,15.905553 5.8666665,15.71666 5.1888887,15.527773 4.5527776,15.261107 3.9583331,14.91666 3.3638886,14.56666 2.8222219,14.149993 2.333333,13.66666 1.8499996,13.177773 1.4333329,12.636107 1.0833329,12.04166 0.73888844,11.44722 0.47222176,10.81111 0.28333286,10.13333 0.09444396,9.4499967 -4.8939614e-7,8.7388867 -4.8939614e-7,8 -4.8939614e-7,7.2611067 0.09444396,6.5527733 0.28333286,5.875 0.47222176,5.1916667 0.73888844,4.5527767 1.0833329,3.95833 1.4333329,3.3638833 1.8499996,2.8249933 2.333333,2.34166 2.8222219,1.8527733 3.3638886,1.4361067 3.9583331,1.09166 4.5527776,0.74166 5.1888887,0.47221667 5.8666665,0.28333 6.5499998,0.09444333 7.261111,0 7.9999999,0 8.7388888,0 9.4472222,0.09444333 10.125,0.28333 c 0.683333,0.18888667 1.322222,0.45833 1.916667,0.80833 0.594445,0.3444467 1.133334,0.7611133 1.616667,1.25 0.488889,0.4833333 0.905555,1.0222233 1.25,1.61667 0.35,0.5944467 0.619444,1.2333367 0.808333,1.91667 C 15.905556,6.5527733 16,7.2611067 16,8 c 0,0.7388867 -0.09444,1.4499967 -0.283333,2.13333 -0.188889,0.67778 -0.458333,1.31389 -0.808333,1.90833 -0.344445,0.594447 -0.761111,1.136113 -1.25,1.625 -0.483333,0.483333 -1.022222,0.9 -1.616667,1.25 -0.594445,0.344447 -1.233334,0.611113 -1.916667,0.8 C 9.4472222,15.905553 8.7388888,16 7.9999999,16 Z m 0,-14.93334 c -0.6388889,0 -1.2527778,0.083333 -1.8416667,0.25 -0.5888889,0.1666667 -1.1416668,0.4 -1.6583335,0.7 -0.5111111,0.3 -0.9777778,0.6611133 -1.4,1.08334 -0.4222223,0.42222 -0.7833334,0.8916633 -1.0833334,1.40833 -0.3,0.5111133 -0.5333334,1.06389 -0.7000001,1.65833 -0.1666667,0.5888933 -0.25,1.2000067 -0.25,1.83334 0,0.6333333 0.083333,1.24722 0.25,1.84166 0.1666667,0.588893 0.4000001,1.141673 0.7000001,1.65834 0.3,0.511107 0.6611111,0.977773 1.0833334,1.4 0.4222222,0.42222 0.8888889,0.78333 1.4,1.08333 0.5166667,0.3 1.0694446,0.533333 1.6583335,0.7 0.5888889,0.166667 1.2027778,0.25 1.8416667,0.25 0.6333334,0 1.2444446,-0.08333 1.8333335,-0.25 0.5944446,-0.166667 1.1472226,-0.4 1.6583336,-0.7 0.516667,-0.3 0.986111,-0.66111 1.408333,-1.08333 0.422223,-0.422227 0.783334,-0.888893 1.083334,-1.4 0.3,-0.516667 0.533333,-1.069447 0.7,-1.65834 0.166667,-0.5888867 0.25,-1.2027733 0.25,-1.84166 0,-0.6333333 -0.08333,-1.2444467 -0.25,-1.83334 -0.166667,-0.59444 -0.4,-1.1472167 -0.7,-1.65833 C 13.683334,3.9916633 13.322223,3.52222 12.9,3.1 12.477778,2.6777733 12.008334,2.31666 11.491667,2.01666 c -0.511111,-0.3 -1.063889,-0.5333333 -1.6583336,-0.7 -0.5888889,-0.1666667 -1.2000001,-0.25 -1.8333335,-0.25 z M 7,7 h 2 v 5.5 H 7 Z M 7,3.5 H 9 V 5.33333 H 7 Z"/>
    </g>
</svg>
