<svg width="48" height="16" version="1.1" viewBox="0 0 12.7 4.2333" xmlns="http://www.w3.org/2000/svg">
    <g transform="translate(0 -292.77)">
        <g fill="#616161">
            <path d="m3.7042 294.62v2.3812h-3.175v-2.3812h.52917v-.77308q0-.22324.080615-.41961t.22324-.34313q.14263-.14676.33486-.23151.1943-.0847.41961-.0847t.41755.0847q.1943.0848.33693.23151.14263.14676.22324.34313.080615.19637.080615.41961v.77308zm-2.3812 0h1.5875v-.77308q0-.16743-.059945-.31419-.059945-.14883-.16743-.26045-.10542-.11162-.25218-.1757-.14469-.0641-.31419-.0641t-.31626.0641q-.14469.0641-.25218.1757-.10542.11162-.16536.26045-.059945.14676-.059945.31419zm2.1167.26458h-2.6458v1.8521h2.6458z" fill="#616161"/>
        </g>
        <g fill="#303030">
            <path d="m7.9375 294.62v2.3812h-3.175v-2.3812h.52917v-.77308q0-.22324.080615-.41961t.22324-.34313q.14263-.14676.33486-.23151.1943-.0847.41961-.0847.22531 0 .41755.0847.1943.0848.33693.23151.14263.14676.22324.34313.080615.19637.080615.41961v.77308zm-2.3812 0h1.5875v-.77308q0-.16743-.059945-.31419-.059945-.14883-.16743-.26045-.10542-.11162-.25218-.1757-.14469-.0641-.31419-.0641-.1695 0-.31626.0641-.14469.0641-.25218.1757-.10542.11162-.16536.26045-.059945.14676-.059945.31419zm2.1167.26458h-2.6458v1.8521h2.6458z" fill="#303030"/>
        </g>
        <g>
            <path d="m12.171 294.62v2.3812h-3.175v-2.3812h.52917v-.77308q0-.22324.080615-.41961t.22324-.34313q.14263-.14676.33486-.23151.1943-.0847.41961-.0847t.41754.0847q.1943.0848.33693.23151.14263.14676.22324.34313.08061.19637.08061.41961v.77308zm-2.3813 0h1.5875v-.77308q0-.16743-.05995-.31419-.05995-.14883-.16743-.26045-.10542-.11162-.25218-.1757-.14469-.0641-.31419-.0641-.1695 0-.31626.0641-.14469.0641-.25218.1757-.10542.11162-.16536.26045-.059945.14676-.059945.31419zm2.1167.26458h-2.6458v1.8521h2.6458z"/>
        </g>
    </g>
</svg>
