<svg width="48" height="16" version="1.1" viewBox="0 0 12.7 4.2333" xmlns="http://www.w3.org/2000/svg">
    <g transform="translate(0 -292.77)">
        <g fill="#e81123" aria-label="">
            <path d="m2.7201 294.16-.14077-.14076-.59205.59204-.59205-.59204-.14077.14076.59205.59205-.59205.59204.14077.14077.59205-.59205.58791.58791.14077-.14077-.58791-.5879zm-.73281 2.8381q-.24634-.14491-.49061-.30845-.2422-.16561-.4637-.35398-.21943-.19045-.40988-.40574-.18838-.21529-.32707-.46163t-.21736-.52373q-.078663-.2774-.078663-.58998v-1.0599q.17182 0 .33328-.0124t.31465-.0455q.15319-.0331.30223-.0931.14905-.06.29809-.15526.17596-.11385.35192-.16768.17596-.0559.38711-.0559.10557 0 .2008.0145.095224.0124.18424.0414.091084.0269.17803.0704.086944.0414.17596.0973.14905.0952.29809.15526.14905.06.30223.0931.15319.0331.31465.0455.16147.0124.33328.0124v1.0599q0 .31258-.078663.58998-.078663.27739-.21736.52373-.1387.24634-.32914.46163-.18838.21529-.40988.40574-.21943.18837-.4637.35398-.2422.16354-.48854.30845zm-1.7223-3.4426v.79905q0 .2629.068313.5051.070383.2422.19045.46163.12007.21736.28567.41402.16561.19459.35606.36848.19045.17181.39953.31879.21115.14698.4223.26911.21115-.12213.42023-.26911.21115-.14698.4016-.31879.19045-.17389.35606-.36848.16561-.19666.28567-.41402.12007-.21943.18838-.46163.070383-.2422.070383-.5051v-.79905q-.30844-.0166-.59205-.0994-.28153-.0828-.54236-.25048-.14077-.0911-.28153-.13248-.1387-.0435-.30637-.0435-.16768 0-.30844.0435-.1387.0414-.27946.13248-.26083.16768-.54443.25048-.28153.0828-.58998.0994z" fill="#e81123" stroke-width=".10599"/>
        </g>
        <g fill="#99000d" aria-label="">
            <path d="m6.9534 294.16-.14077-.14076-.59205.59204-.59205-.59204-.14077.14076.59205.59205-.59205.59204.14077.14077.59205-.59205.58791.58791.14077-.14077-.58791-.5879zm-.73281 2.8381q-.24634-.1449-.49061-.30844-.2422-.16561-.4637-.35398-.21943-.19045-.40988-.40574-.18838-.21529-.32707-.46163t-.21736-.52373q-.078663-.2774-.078663-.58998v-1.0599q.17182 0 .33328-.0124t.31465-.0455q.15319-.0331.30223-.0931.14905-.06.29809-.15526.17596-.11385.35192-.16768.17596-.0559.38711-.0559.10557 0 .2008.0145.095224.0124.18424.0414.091084.0269.17803.0704.086944.0414.17596.0973.14905.0952.29809.15526.14905.06.30223.0931.15319.0331.31465.0455.16147.0124.33328.0124v1.0599q0 .31258-.078663.58998-.078663.27739-.21736.52373-.1387.24634-.32914.46163-.18838.21529-.40988.40574-.21943.18837-.4637.35398-.2422.16354-.48854.30844zm-1.7223-3.4426v.79905q0 .2629.068313.5051.070383.2422.19045.46163.12007.21736.28567.41402.16561.19459.35606.36848.19045.17181.39953.31879.21115.14698.4223.26911.21115-.12213.42023-.26911.21115-.14698.4016-.31879.19045-.17389.35606-.36848.16561-.19666.28567-.41402.12007-.21943.18838-.46163.070383-.2422.070383-.5051v-.79905q-.30844-.0166-.59205-.0994-.28153-.0828-.54236-.25048-.14077-.0911-.28153-.13249-.1387-.0435-.30637-.0435t-.30844.0435q-.1387.0414-.27946.13249-.26083.16768-.54443.25048-.28153.0828-.58998.0994z" fill="#99000d" stroke-width=".10599"/>
        </g>
        <g fill="#6e0009" aria-label="">
            <path d="m11.187 294.16-.14077-.14076-.59205.59204-.59205-.59204-.14077.14076.59205.59205-.59205.59204.14077.14077.59205-.59205.58791.58791.14077-.14077-.58791-.5879zm-.73281 2.8381q-.24634-.1449-.49061-.30844-.2422-.16561-.4637-.35398-.21943-.19045-.40988-.40574-.18838-.21529-.32707-.46163t-.21736-.52373q-.078663-.2774-.078663-.58998v-1.0599q.17182 0 .33328-.0124.16147-.0124.31465-.0455.15319-.0331.30223-.0931.14905-.06.29809-.15526.17596-.11385.35191-.16768.17596-.0559.38711-.0559.10558 0 .2008.0145.09522.0124.18424.0414.09108.0269.17803.0704.08694.0414.17596.0973.14905.0952.29809.15526.14905.06.30223.0931.15319.0331.31465.0455t.33328.0124v1.0599q0 .31258-.07866.58998-.07866.27739-.21736.52373-.1387.24634-.32914.46163-.18838.21529-.40988.40574-.21943.18837-.4637.35398-.2422.16354-.48854.30844zm-1.7223-3.4426v.79905q0 .2629.068313.5051.070383.2422.19045.46163.12007.21736.28567.41402.16561.19459.35606.36848.19045.17181.39953.31879.21115.14698.4223.26911.21115-.12213.42023-.26911.21115-.14698.4016-.31879.19045-.17389.35606-.36848.16561-.19666.28567-.41402.12006-.21943.18838-.46163.07038-.2422.07038-.5051v-.79905q-.30844-.0166-.59205-.0994-.28153-.0828-.54236-.25048-.14077-.0911-.28153-.13249-.1387-.0435-.30637-.0435t-.30844.0435q-.1387.0414-.27946.13249-.26083.16768-.54443.25048-.28153.0828-.58998.0994z" fill="#6e0009" stroke-width=".10599"/>
        </g>
    </g>
</svg>
