<svg width="48" height="16" version="1.1" viewBox="0 0 12.7 4.2333" xmlns="http://www.w3.org/2000/svg">
    <g transform="translate(0 -292.77)">
        <g fill="#303030">
            <path d="m6.35 292.77q.29146 0 .56224.0765.27078.0744.50643.2129.23564.13643.42788.33073.1943.19224.33073.42788.13849.23565.21291.50643.076481.27079.076481.56224 0 .29146-.076481.56224-.074414.27079-.21291.50643-.13643.23565-.33073.42995-.19224.19224-.42788.33073-.23564.13642-.50643.21291-.27078.0744-.56224.0744-.29146 0-.56224-.0744-.27078-.0765-.50643-.21291-.23564-.13849-.42995-.33073-.19224-.1943-.33073-.42995-.13643-.23564-.21291-.50436-.074414-.27078-.074414-.56431 0-.29145.074414-.56224.076481-.27078.21291-.50643.13849-.23564.33073-.42788.1943-.1943.42995-.33073.23564-.13849.50436-.2129.27078-.0765.56431-.0765zm1.6722 1.3229q-.078548-.16743-.19017-.31419-.11162-.14883-.24805-.27078-.13643-.12196-.29559-.21705-.15916-.0951-.3328-.15502.074414.10335.13436.2191.059945.11576.10542.23978.047542.12196.080615.24805t.057878.25011zm.17983.79375q0-.27492-.076481-.52916h-.75034q.016536.13229.024805.26458.00827.13022.00827.26458t-.00827.26665q-.00827.13023-.024805.26252h.75034q.076481-.25425.076481-.52917zm-1.8521 1.8521q.10129 0 .1881-.0558.088883-.0558.1633-.14677.074414-.0909.13229-.20463.059945-.11576.10542-.23358t.076481-.22738q.031006-.10955.047542-.19017h-1.4263q.016536.0806.047542.19017.031006.10956.076481.22738t.10335.23358q.059945.11368.13436.20463.074414.091.16123.14677.088884.0558.19017.0558zm.75861-1.3229q.016536-.13229.024805-.26252.010335-.13229.010335-.26665t-.010335-.26458q-.00827-.13229-.024805-.26458h-1.5172q-.016536.13229-.026872.26458-.00827.13022-.00827.26458t.00827.26665q.010335.13023.026872.26252zm-2.6107-.52917q0 .27492.076481.52917h.75034q-.016536-.13229-.024805-.26252-.00827-.13229-.00827-.26665t.00827-.26458q.00827-.13229.024805-.26458h-.75034q-.076481.25424-.076481.52916zm1.8521-1.8521q-.10129 0-.19017.0558-.086816.0558-.16123.14676-.074414.091-.13436.20671-.057878.11369-.10335.23151-.045475.11782-.076481.22737-.031006.10956-.047542.19017h1.4263q-.016536-.0806-.047542-.19017-.031006-.10955-.076481-.22737t-.10542-.23151q-.057878-.11576-.13229-.20671-.074414-.091-.1633-.14676-.086816-.0558-.1881-.0558zm-.60565.10129q-.17363.0599-.3328.15502-.15916.0951-.29559.21705-.13643.12195-.24805.27078-.11162.14676-.19017.31419h.68833q.024805-.12402.057878-.25011t.078548-.24805q.047542-.12402.10749-.23978.059945-.11575.13436-.2191zm-1.0666 2.5445q.078548.16743.19017.31626.11162.14676.24805.26872.13643.12196.29559.21704.15916.0951.3328.15503-.074414-.10335-.13436-.21911-.059945-.11575-.10749-.23771-.045475-.12402-.078548-.25011t-.057878-.25012zm2.2779.95705q.17363-.0599.3328-.15503.15916-.0951.29559-.21704.13643-.12196.24805-.26872.11162-.14883.19017-.31626h-.68833q-.024805.12403-.057878.25012t-.080615.25011q-.045475.12196-.10542.23771-.059945.11576-.13436.21911z" fill="#303030" stroke-width=".10583"/>
        </g>
        <g>
            <path d="m10.583 292.77q.29146 0 .56224.0765.27078.0744.50643.2129.23564.13643.42788.33073.1943.19224.33073.42788.13849.23565.21291.50643.07648.27079.07648.56224 0 .29146-.07648.56224-.07441.27079-.21291.50643-.13642.23565-.33073.42995-.19224.19224-.42788.33073-.23564.13642-.50643.21291-.27078.0744-.56224.0744t-.56224-.0744q-.27078-.0765-.50643-.21291-.23564-.13849-.42995-.33073-.19224-.1943-.33073-.42995-.13643-.23564-.21291-.50436-.074414-.27078-.074414-.56431 0-.29145.074414-.56224.076481-.27078.21291-.50643.13849-.23564.33073-.42788.1943-.1943.42995-.33073.23564-.13849.50436-.2129.27078-.0765.56431-.0765zm1.6722 1.3229q-.07855-.16743-.19017-.31419-.11162-.14883-.24805-.27078-.13643-.12196-.29559-.21705-.15916-.0951-.3328-.15502.07441.10335.13436.2191.05994.11576.10542.23978.04754.12196.08061.24805t.05788.25011zm.17983.79375q0-.27492-.07648-.52916h-.75034q.01654.13229.0248.26458.0083.13022.0083.26458t-.0083.26665q-.0083.13023-.0248.26252h.75034q.07648-.25425.07648-.52917zm-1.8521 1.8521q.10129 0 .1881-.0558.08888-.0558.1633-.14677.07442-.0909.13229-.20463.05995-.11576.10542-.23358t.07648-.22738q.03101-.10955.04754-.19017h-1.4263q.016536.0806.047542.19017.031006.10956.076481.22738.045476.11782.10335.23358.05995.11368.13436.20463.07441.091.16123.14677.08888.0558.19017.0558zm.75861-1.3229q.01654-.13229.0248-.26252.01034-.13229.01034-.26665t-.01034-.26458q-.0083-.13229-.0248-.26458h-1.5172q-.016537.13229-.026872.26458-.00827.13022-.00827.26458t.00827.26665q.010335.13023.026872.26252zm-2.6107-.52917q0 .27492.076481.52917h.75034q-.016536-.13229-.024805-.26252-.00827-.13229-.00827-.26665t.00827-.26458q.00827-.13229.024805-.26458h-.75034q-.076481.25424-.076481.52916zm1.8521-1.8521q-.10129 0-.19017.0558-.08682.0558-.16123.14676-.07441.091-.13436.20671-.05788.11369-.10335.23151-.045475.11782-.076481.22737-.031006.10956-.047542.19017h1.4263q-.01654-.0806-.04754-.19017-.03101-.10955-.07648-.22737t-.10542-.23151q-.05788-.11576-.13229-.20671-.07441-.091-.1633-.14676-.08682-.0558-.1881-.0558zm-.60565.10129q-.17363.0599-.3328.15502-.15916.0951-.29559.21705-.13643.12195-.24805.27078-.11162.14676-.19017.31419h.68833q.024805-.12402.057878-.25011t.078548-.24805q.047542-.12402.10749-.23978.059945-.11575.13436-.2191zm-1.0666 2.5445q.078548.16743.19017.31626.11162.14676.24805.26872.13643.12196.29559.21704.15916.0951.3328.15503-.074414-.10335-.13436-.21911-.059945-.11575-.10749-.23771-.045475-.12402-.078548-.25011t-.057878-.25012zm2.2779.95705q.17363-.0599.3328-.15503.15916-.0951.29559-.21704.13643-.12196.24805-.26872.11162-.14883.19017-.31626h-.68833q-.02481.12403-.05788.25012t-.08061.25011q-.04547.12196-.10542.23771-.05994.11576-.13436.21911z" stroke-width=".10583"/>
        </g>
        <g fill="#616161">
            <path d="m2.1167 292.77q.29146 0 .56224.0765.27078.0744.50643.2129.23564.13643.42788.33073.1943.19224.33073.42788.13849.23565.21291.50643.076481.27079.076481.56224 0 .29146-.076481.56224-.074414.27079-.21291.50643-.13643.23565-.33073.42995-.19224.19224-.42788.33073-.23564.13642-.50643.21291-.27078.0744-.56224.0744-.29146 0-.56224-.0744-.27078-.0765-.50643-.21291-.23564-.13849-.42995-.33073-.19224-.1943-.33073-.42995-.13643-.23566-.21291-.50438-.074414-.27078-.074414-.56431 0-.29145.074414-.56224.076481-.27078.21291-.50643.13849-.23564.33073-.42788.1943-.1943.42995-.33073.23564-.13849.50436-.2129.27078-.0765.56431-.0765zm1.6722 1.3229q-.078548-.16743-.19017-.31419-.11162-.14883-.24805-.27078-.13643-.12196-.29559-.21705-.15916-.0951-.3328-.15502.074414.10335.13436.2191.059945.11576.10542.23978.047542.12196.080615.24805t.057878.25011zm.17983.79375q0-.27492-.076481-.52916h-.75034q.016536.13229.024805.26458.00827.13022.00827.26458t-.00827.26665q-.00827.13023-.024805.26252h.75034q.076481-.25425.076481-.52917zm-1.8521 1.8521q.10129 0 .1881-.0558.088883-.0558.1633-.14677.074414-.0909.13229-.20463.059945-.11576.10542-.23358t.076481-.22738q.031006-.10955.047542-.19017h-1.4263q.016536.0806.047542.19017.031006.10956.076481.22738t.10335.23358q.059945.11368.13436.20463.074414.091.16123.14677.088883.0558.19017.0558zm.75861-1.3229q.016536-.13229.024805-.26252.010335-.13229.010335-.26665t-.010335-.26458q-.00827-.13229-.024805-.26458h-1.5172q-.016536.13229-.026872.26458-.00827.13022-.00827.26458t.00827.26665q.010335.13023.026872.26252zm-2.6107-.52917q0 .27492.076481.52917h.75034q-.016536-.13229-.024805-.26252-.00827-.13229-.00827-.26665t.00827-.26458q.00827-.13229.024805-.26458h-.75034q-.076481.25424-.076481.52916zm1.8521-1.8521q-.10129 0-.19017.0558-.086816.0558-.16123.14676-.074414.091-.13436.20671-.057878.11369-.10335.23151-.045475.11782-.076481.22737-.031006.10956-.047542.19017h1.4263q-.016537-.0806-.047542-.19017-.031006-.10955-.076481-.22737t-.10542-.23151q-.057878-.11576-.13229-.20671-.074414-.091-.1633-.14676-.086816-.0558-.1881-.0558zm-.60565.10129q-.17363.0599-.3328.15502-.15916.0951-.29559.21705t-.24805.27078q-.11162.14676-.19017.31419h.68833q.024805-.12402.057878-.25011t.078548-.24805q.047542-.12402.10749-.23978.059945-.11575.13436-.2191zm-1.0666 2.5445q.078548.16743.19017.31626.11162.14676.24805.26872t.29559.21704q.15916.0951.3328.15503-.074414-.10335-.13436-.21911-.059945-.11575-.10749-.23771-.045475-.12402-.078548-.25011t-.057878-.25012zm2.2779.95705q.17363-.0599.3328-.15503.15916-.0951.29559-.21704.13643-.12196.24805-.26872.11162-.14883.19017-.31626h-.68833q-.024805.12403-.057878.25012t-.080615.25011q-.045475.12196-.10542.23771-.059945.11576-.13436.21911z" fill="#616161" stroke-width=".10583"/>
        </g>
    </g>
</svg>
