<?xml version="1.0" encoding="UTF-8"?>
<svg width="378" height="36" version="1.1" viewBox="0 0 100.01 9.525" xmlns="http://www.w3.org/2000/svg" xmlns:xlink="http://www.w3.org/1999/xlink">
<!-- This Source Code Form is subject to the terms of the Mozilla Public
   - License, v. 2.0. If a copy of the MPL was not distributed with this
   - file, You can obtain one at http://mozilla.org/MPL/2.0/. -->
<style>
  use:not(:target) {
    display: none;
  }

  use {
    fill: #000;
  }

  use[id$="-inverted"] {
    fill: #fff;
  }
</style>
<defs>
 <g id="toolbar" transform="translate(0 -287.47)">
  <g transform="matrix(1 0 0 1 0 .37041)">
   <path d="m4.7625 289.52v.29853h-4.1934l1.8355 1.8355-.2099.2099-2.1947-2.1947 2.1947-2.1947.2099.2099-1.8355 1.8355z" stroke-width=".11941"/>
  </g>
  <g transform="matrix(-1 0 0 1 9.525 .37041)">
   <path d="m4.7625 289.52v.29853h-4.1934l1.8355 1.8355-.2099.2099-2.1947-2.1947 2.1947-2.1947.2099.2099-1.8355 1.8355z" stroke-width=".11941"/>
  </g>
  <g transform="translate(3.9367 8.0688)">
   <path d="m10.351 279.68-2.1038 2.1068 2.1038 2.1068-.27441.27441-2.1068-2.1038-2.1068 2.1038-.27441-.27441 2.1038-2.1068-2.1038-2.1068.27441-.2744 2.1068 2.1038 2.1068-2.1038z" stroke-width=".15611"/>
  </g>
  <g transform="translate(-.99218 2.1828)">
   <path d="m18.296 285.38q.38602.10465.70693.32789.32091.22092.55113.52555.23254.30231.36044.67205.1279.36742.1279.7674 0 .32788-.08604.63252-.08371.30463-.23952.56973-.15348.2651-.37207.48369-.21627.21627-.48137.37207-.2651.15348-.56973.23952-.30463.0837-.63252.0837t-.63252-.0837q-.30463-.086-.56973-.23952-.2651-.1558-.48369-.37207-.21627-.21859-.37207-.48369-.15348-.2651-.23952-.56741-.08372-.30463-.08372-.63484 0-.32556.08604-.63252t.24417-.57671q.16046-.27208.38835-.49299.22789-.22325.51392-.38138h-.63717v-.29765h1.1906v1.1906h-.29766v-.69065q-.27208.13022-.49299.32788-.21859.19534-.3744.44184-.1558.24417-.23952.52787-.08372.28371-.08372.58369 0 .28603.07441.55345.07441.2651.20929.49765.1372.23021.32789.4209t.4209.32789q.23254.13487.49764.20929.2651.0744.55346.0744.28603 0 .55113-.0744.26742-.0744.49764-.20929.23254-.1372.42323-.32789t.32556-.4209q.1372-.23255.21162-.49765.07441-.2651.07441-.55345 0-.34882-.11395-.67205-.11162-.32324-.31393-.58834-.20231-.2651-.48369-.45811-.27905-.19534-.61624-.28836l.07906-.28603z" stroke-width=".11906"/>
  </g>
  <g transform="translate(6.5164 4.7625)">
   <path d="m14.915 283.03 2.3812 2.3838-.22775.22775-.21004-.20751v2.0371h-1.6196v-1.6196h-.64782v1.6196h-1.6196v-2.0371l-.21004.20751-.22775-.22775zm1.6196 4.1172v-2.0371l-1.6196-1.6196-1.6196 1.6196v2.0371h.97173v-1.6196h1.2956v1.6196z" stroke-width=".12956"/>
  </g>
  <g>
   <path d="m27.654 292.24h-2.6789v-.29766h2.6789zm.10464-1.979-1.4441 1.4557-1.4441-1.4557.20929-.20929 1.086 1.093v-3.6672h.29766v3.6672l1.086-1.093z" stroke-width=".11906"/>
  </g>
  <g>
   <path d="m30.956 292.24q-.32955 0-.63518-.0851-.30297-.085-.56874-.23919-.26311-.1568-.48103-.37207-.21527-.21792-.37207-.48103-.15414-.26576-.23919-.56874-.08505-.30562-.08505-.63517t.08505-.63252q.08504-.30563.23919-.56874.1568-.26576.37207-.48103.21793-.21793.48103-.37207.26576-.1568.56874-.24185.30563-.085.63518-.085t.63252.085q.30563.0851.56874.24185.26576.15414.48103.37207.21793.21527.37207.48103.1568.26311.24184.56874.08505.30297.08505.63252t-.08505.63517q-.08504.30298-.24184.56874-.15414.26311-.37207.48103-.21527.21527-.48103.37207-.26311.15415-.56874.23919-.30297.0851-.63252.0851zm0-4.4223q-.42257 0-.79464.16211-.36941.15946-.64846.43851-.2764.2764-.43851.64847-.15946.36941-.15946.79198 0 .42256.15946.79463.16212.36942.43851.64847.27905.27639.64846.43851.37207.15946.79464.15946t.79198-.15946q.37207-.16212.64847-.43851.27905-.27905.43851-.64847.16212-.37207.16212-.79463 0-.42257-.16212-.79198-.15946-.37207-.43851-.64847-.2764-.27905-.64847-.43851-.36941-.16211-.79198-.16211zm0 2.0411v-1.3607h-.34018v1.7009h1.3607v-.34018z" stroke-width=".13607"/>
  </g>
  <g>
   <path d="m36.63 290.39.57671 1.8464-1.4883-1.1441-1.4883 1.1441.57671-1.8464-1.4697-1.1302h1.8231l.5581-1.7859.55811 1.7859h1.8231zm.01163 1.0371q-.08837-.28835-.17673-.57205-.08837-.28603-.18138-.57439.23952-.17906.47206-.36044t.46974-.36277h-1.1674l-.33952-1.086-.33951 1.086h-1.1674q.2372.18139.46974.36277.23254.18138.47206.36044-.09302.28836-.18138.57439-.08837.2837-.17673.57205l.9232-.71158z" stroke-width=".11906"/>
  </g>
  <g>
   <path d="m42.522 289.52q.07176 0 .13288.0266.06113.0266.10631.0744.04784.0452.07441.10631.02658.0611.02658.13288v2.3812h-4.7625v-2.3812q0-.0718.02658-.13288.02658-.0611.07176-.10631.04784-.0478.10896-.0744.06113-.0266.13288-.0266h.68036v-1.3607q0-.14086.05315-.26311.05315-.12491.14617-.21793.09302-.093.21527-.14617.12491-.0532.26576-.0532h2.3812q.14086 0 .26311.0532.12491.0531.21793.14617.09302.093.14617.21793.05315.12225.05315.26311 0 .14085-.05315.26576-.05315.12225-.14617.21527-.09302.093-.21793.14617-.12225.0532-.26311.0532h-.34018v.68036zm0-1.3607q0-.0718-.02658-.13289-.02658-.0611-.07442-.1063-.04518-.0478-.1063-.0744-.06113-.0266-.13288-.0266-.07176 0-.13288.0266-.06113.0266-.10896.0744-.04518.0452-.07176.1063t-.02658.13289v.34017h.34018q.07176 0 .13288-.0266.06112-.0266.1063-.0718.04784-.0478.07442-.10896.02658-.0611.02658-.13288zm-3.0616 1.3607h2.0411v-1.3607q0-.0904.02392-.17541.02658-.0877.07176-.16477h-1.7966q-.07176 0-.13288.0266-.06113.0266-.10896.0744-.04518.0452-.07176.1063t-.02658.13289zm3.0616.34018h-4.0821v2.0411h4.0821zm-3.0616.68036h-.68036v-.34018h.68036z" stroke-width=".13607"/>
  </g>
  <g transform="matrix(1 0 0 -1 -4.7625 .52917)">
   <path d="m47.625-291.44h4.7625v3.7372h-4.7625zm4.4648.29766h-4.1672v2.5466h4.1672zm-4.1672 3.1419h4.1672v-.29766h-4.1672z" stroke-width=".11906"/>
  </g>
  <g>
   <path d="m46.567 290.3v.16537h-1.2402v1.2402h-.16536v-1.2402h-1.2402v-.16537h1.2402v-1.2402h.16536v1.2402h1.2402z" stroke-width=".066146"/>
  </g>
  <g>
   <path d="m55.89 291.02q.12078.005.22735.0545.10894.0474.18709.13025.08052.0829.12552.19182.04736.10894.04736.22972 0 .12552-.04973.23682-.04736.10894-.13025.19183-.08052.0805-.19183.13025-.11131.0474-.23445.0474-.12552 0-.23682-.0474-.10894-.0497-.19183-.13025-.08052-.0829-.13025-.19183-.04736-.1113-.04736-.23682 0-.16814.08526-.3126.08763-.14447.23682-.22262l-.62995-1.2575-.62758 1.2528q.07578.0403.13499.0971.06157.0568.1042.12789.04263.071.06631.15156.02368.0782.02368.16341 0 .12552-.04973.23682-.04736.10894-.13025.19183-.08052.0805-.19183.13025-.11131.0474-.23445.0474-.12552 0-.23682-.0474-.10894-.0497-.19183-.13025-.08052-.0829-.13025-.19183-.04736-.1113-.04736-.23682 0-.12078.045-.22735.045-.10894.12315-.18946.07815-.0829.18235-.13262.10657-.0497.22735-.0568l.76257-1.5299-.80283-1.6056.13736-.41444.83598 1.6767.83598-1.6767.13736.41444-.80283 1.6056zm-1.8377.90939q.06394 0 .11841-.0237.05447-.0237.09473-.0639.04263-.0426.06631-.0971t.02368-.11841q0-.0639-.02368-.11841-.02368-.0545-.06631-.0947-.04026-.0426-.09473-.0663t-.11841-.0237q-.06394 0-.11841.0237-.05447.0237-.0971.0663-.04026.0403-.06394.0947-.02368.0545-.02368.11841 0 .0639.02368.11841.02368.0545.06394.0971.04263.0403.0971.0639.05447.0237.11841.0237zm1.8188 0q.06394 0 .11841-.0237.05447-.0237.09473-.0639.04263-.0426.06631-.0971t.02368-.11841q0-.0639-.02368-.11841-.02368-.0545-.06631-.0947-.04026-.0426-.09473-.0663t-.11841-.0237q-.06394 0-.11841.0237-.05447.0237-.0971.0663-.04026.0403-.06394.0947-.02368.0545-.02368.11841 0 .0639.02368.11841.02368.0545.06394.0971.04263.0403.0971.0639.05447.0237.11841.0237z" stroke-width=".12125"/>
  </g>
  <g>
   <path d="m60.305 288.37 1.2767 1.2767v2.5929h-2.9766v-.89297h-1.1906v-3.8695h1.6999l.89297.89297zm.08604.50927v.68135h.68136zm-2.6789 2.1696h.89297v-2.6789h.97901l-.59531-.59532h-1.2767zm1.1906.89297h2.3812v-2.0836h-1.1906v-1.1906h-1.1906z" stroke-width=".11906"/>
  </g>
  <g>
   <path d="m66.344 289.26v2.9766h-2.3812v-.29766h-1.7859v-3.8695h1.1906q0-.12092.04651-.23022.04883-.10929.1279-.18836.08139-.0814.18836-.1279.1093-.0488.23254-.0488.12092 0 .23022.0488.1093.0465.18836.1279.08139.0791.1279.18836.04883.1093.04883.23022h1.1906v1.1906zm-3.2742-.89296v.29765h1.7859v-.29765h-.59531q0-.0581.0023-.12325.0023-.0674-.0023-.13255-.0047-.0674-.02093-.1279-.01395-.0628-.04651-.1093t-.08837-.0744-.14185-.0279q-.13022 0-.19301.0605-.06046.0605-.08604.15115-.02325.0884-.02093.19301.0023.10464.0023.19069zm.89297 3.2742v-2.3812h1.4883v-.89296h-.29766v.59531h-2.3812v-.59531h-.29766v3.2742zm2.0836-2.0836h-1.7859v2.3812h1.7859z" stroke-width=".11906"/>
  </g>
  <g>
   <path d="m69.849 287.47h1.5883v1.5883h-.39765v-.94645l-3.723 3.723h.94645v.39765h-1.5883v-1.5883h.39765v.94646l3.723-3.723h-.94645v-.39765z" stroke-width=".11906"/>
  </g>
  <g>
   <path d="m51.367 291.4v-1.2473h.31182v1.5591h-4.0536v-2.8063h2.8063v.31181h-2.4945v2.1827z" stroke-width=".12473"/>
  </g>
  <g>
   <path d="m52.388 288.9v.29607h-.69614l-3.4e-5.74083h-.30103l3.4e-5-.74083h-.72263v-.29607h.72263l-1e-6-.89454h.30103l1e-6.89454z" stroke-width=".046302"/>
  </g>
  <g transform="translate(0 -.37041)">
   <path d="m76.2 290.39h-4.7625v-.29766h4.7625z" stroke-width=".11906"/>
  </g>
  <g>
   <path d="m80.962 289.71v.29766h-2.2324v2.2324h-.29766v-2.2324h-2.2324v-.29766h2.2324v-2.2324h.29766v2.2324h2.2324z" stroke-width=".11906"/>
  </g>
  <g>
   <path d="m83.344 291.94q.35812 0 .686-.10929.33021-.11163.59996-.31161.27208-.20232.47206-.48369.20231-.28371.30696-.62787l.2837.0884q-.11627.38835-.34649.70926-.23022.31859-.54183.54881-.30928.23021-.68368.35811-.37207.12558-.7767.12558-.31858 0-.62089-.0791t-.57206-.22789q-.26742-.15115-.49532-.36509-.22789-.21627-.39532-.48835v.56509h-.29766v-1.1906h1.1906v.29766h-.73484q.1372.27207.33951.49299.20464.21859.45579.3744.25115.15347.53718.23952.28836.0837.59299.0837zm2.3812-3.8695v1.1906h-1.1906v-.29766h.73484q-.1372-.27208-.34184-.49067-.20231-.22092-.45346-.37439-.25115-.15581-.5395-.23952-.28603-.0861-.59066-.0861-.35812 0-.68833.11163-.32789.10929-.59996.3116-.26975.19999-.47206.4837-.19999.28137-.30463.62554l-.2837-.0884q.11627-.38602.34649-.70693.23022-.32091.5395-.55113.31161-.23022.68368-.35579.3744-.1279.77902-.1279.31859 0 .62089.0791t.56973.23022q.26975.14883.49764.3651.22789.21394.39532.48601v-.56508z" stroke-width=".11906"/>
  </g>
  <g>
   <path d="m88.106 292.24q0-.32866.08372-.63252.08682-.30386.24185-.56741.15503-.26665.37207-.48369t.48059-.37207q.26665-.15503.57051-.23875.30386-.0868.63252-.0868v.39687q-.27285 0-.5271.0713t-.47439.20153q-.22014.12713-.40308.31006-.17983.17984-.31006.39998-.12712.22014-.19844.47439-.07131.25425-.07131.5271zm-1.1906 0q0-.493.12712-.94878.12712-.45889.35967-.85576.23254-.39688.55811-.72244.32556-.32556.72244-.55811.39688-.23254.85266-.35966.45889-.12713.95188-.12713v.39688q-.43718 0-.84336.11472-.40308.11162-.75654.31936t-.64492.49919q-.28835.28836-.49609.64182-.20774.35347-.32246.75965-.11162.40307-.11162.84026zm-1.1906 0q0-.65733.17053-1.265.17053-.60772.48059-1.1379.31006-.5302.74414-.96428t.96428-.74414q.5302-.31006 1.1379-.48059.60772-.17053 1.265-.17053v.39687q-.60151 0-1.1596.15813-.555.15503-1.0418.44029-.48369.28215-.88367.68212-.39998.39998-.68523.88677-.28215.48369-.44028 1.0418-.15503.555-.15503 1.1565zm4.1672-1.1906q.12402 0 .23254.0465.10852.0465.18914.12713.08062.0806.12712.18913.04651.10852.04651.23254 0 .12403-.04651.23255t-.12712.18913q-.08062.0806-.18914.12713-.10852.0465-.23254.0465t-.23254-.0465q-.10852-.0465-.18914-.12713-.08062-.0806-.12712-.18913-.04651-.10852-.04651-.23255 0-.12402.04651-.23254t.12712-.18913q.08062-.0806.18914-.12713.10852-.0465.23254-.0465z" stroke-width=".15875"/>
  </g>
  <g>
   <path d="m95.25 288.4v3.5719h-4.7625v-3.5719h1.2767l.29766-.29766h1.6139l.29766.29766zm-.29766.29766h-1.1046l-.29766-.29766h-1.3627l-.29766.29766h-1.1046v2.9766h4.1672zm-2.0836.29765q.2465 0 .46276.093.21859.093.37905.2558.16278.16045.2558.37904.09302.21627.09302.46277 0 .24649-.09302.46508-.09302.21627-.2558.37905-.16046.16046-.37905.25347-.21626.093-.46276.093t-.46509-.093q-.21627-.093-.37905-.25347-.16046-.16278-.25347-.37905-.09302-.21859-.09302-.46508 0-.2465.09302-.46277.09302-.21859.25347-.37904.16278-.16278.37905-.2558.21859-.093.46509-.093zm0 2.0836q.18371 0 .34649-.0698.16278-.0721.2837-.19301.12092-.12092.19069-.2837.07209-.16278.07209-.34649t-.07209-.34649q-.06976-.16278-.19069-.28371-.12092-.12092-.2837-.19068-.16278-.0721-.34649-.0721t-.34649.0721q-.16278.0698-.2837.19068-.12092.12093-.19301.28371-.06976.16278-.06976.34649t.06976.34649q.07209.16278.19301.2837.12092.12092.2837.19301.16278.0698.34649.0698zm-1.6371-2.0836q.06046 0 .10464.0442.04418.0442.04418.10464 0 .0605-.04418.10464-.04418.0442-.10464.0442-.06046 0-.10464-.0442-.04418-.0442-.04418-.10464 0-.0605.04418-.10464.04418-.0442.10464-.0442z" stroke-width=".11906"/>
  </g>
  <g>
   <path d="m98.543 290.39.57671 1.8464-1.4883-1.1441-1.4883 1.1441.57671-1.8464-1.4697-1.1302h1.8231l.55811-1.7859.5581 1.7859h1.8231zm.01163 1.0371q-.08837-.28835-.17673-.57205-.08837-.28603-.18138-.57439.23952-.17906.47206-.36044t.46974-.36277h-1.1674l-.33951-1.086-.33951 1.086h-1.1674q.2372.18139.46974.36277t.47206.36044q-.09302.28836-.18138.57439-.08837.2837-.17673.57205l.9232-.71158z" stroke-width=".11906"/>
  </g>
  <g>
   <path d="m100.01 294.02-1.4697 1.1302.57671 1.8464-1.4883-1.1441-1.4883 1.1441.57671-1.8464-1.4697-1.1302h1.8231l.55811-1.7859.5581 1.7859h1.8231z" stroke-width=".11906"/>
  </g>
 </g>
</defs>
<use id="state"             xlink:href="#toolbar"/>
<use id="state-inverted"    xlink:href="#toolbar"/>
</svg>
