<?xml version="1.0" encoding="UTF-8"?>
<svg width="378" height="36" version="1.1" viewBox="0 0 378 36" xmlns="http://www.w3.org/2000/svg" xmlns:xlink="http://www.w3.org/1999/xlink">
<style>
  use:not(:target) {
    display: none;
  }

  use {
    fill: #000;
  }

  use[id$="-inverted"] {
    fill: #fff;
  }

  use[id$="-hover"] {
    fill: #919191;
  }

  use[id$="-yellow"] {
    fill: #FFB900;
  }
  
  use[id$="-orange"] {
    fill: #DE6800;
  }
  
  use[id$="-green"] {
    fill: #007F0E;
  }
  
  use[id$="-red"] {
    fill: #7F0000;
  }
  
  use[id$="-active"] {
    fill: #0078D7;
  }
</style>
<defs>
 <g id="toolbar">
  <path d="m18 9.1411v1.1283h-15.849l6.9373 6.9373-0.79332 0.79332-8.2949-8.2949 8.2949-8.2949 0.79332 0.79332-6.9373 6.9373z"/>
  <path d="m18 9.1411v1.1283h15.849l-6.9373 6.9373 0.79332 0.79332 8.2949-8.2949-8.2949-8.2949-0.79332 0.79332 6.9373 6.9373z"/>
  <path d="m54 1.0372-7.9515 7.9628 7.9515 7.9628-1.0372 1.0372-7.9628-7.9515-7.9628 7.9515-1.0372-1.0372 7.9515-7.9628-7.9515-7.9628 1.0372-1.0371 7.9628 7.9515 7.9628-7.9515z"/>
  <path d="m65.399 0.33403q1.459 0.39553 2.6719 1.2393 1.2129 0.83497 2.083 1.9863 0.87889 1.1426 1.3623 2.54 0.4834 1.3887 0.4834 2.9004 0 1.2392-0.32519 2.3906-0.31638 1.1514-0.90527 2.1533-0.58008 1.002-1.4062 1.8281-0.8174 0.8174-1.8194 1.4062-1.002 0.58008-2.1533 0.90527-1.1514 0.31635-2.3906 0.31635t-2.3906-0.31635q-1.1514-0.32504-2.1533-0.90527-1.002-0.58885-1.8281-1.4062-0.8174-0.82617-1.4062-1.8281-0.58008-1.002-0.90527-2.1445-0.31642-1.1514-0.31642-2.3994 0-1.2305 0.32519-2.3906 0.32519-1.1602 0.92285-2.1797 0.60646-1.0283 1.4678-1.8633 0.86132-0.84378 1.9424-1.4414h-2.4082v-1.125h4.4999v4.4999h-1.125v-2.6103q-1.0283 0.49217-1.8633 1.2392-0.82617 0.73829-1.4151 1.6699-0.58885 0.92285-0.90527 1.9951-0.31642 1.0723-0.31642 2.2061 0 1.0811 0.28124 2.0918 0.28123 1.002 0.79102 1.8809 0.51855 0.87008 1.2393 1.5908 0.72072 0.72072 1.5908 1.2393 0.87889 0.50974 1.8808 0.79102 1.002 0.2812 2.0918 0.2812 1.0811 0 2.083-0.2812 1.0107-0.2812 1.8808-0.79102 0.87889-0.51855 1.5996-1.2393 0.72072-0.72072 1.2305-1.5908 0.51855-0.87893 0.79982-1.8809 0.28124-1.002 0.28124-2.0918 0-1.3184-0.43068-2.54-0.42187-1.2217-1.1865-2.2236-0.76464-1.002-1.8281-1.7314-1.0547-0.73829-2.3291-1.0899l0.29881-1.0811z"/>
  <path d="m81 1.2149 8.9996 9.0094-0.86077 0.86077-0.79384-0.78427v7.6991h-6.1212v-6.1212h-2.4484v6.1212h-6.1212v-7.6991l-0.79384 0.78427-0.86077-0.86077zm6.1212 15.561v-7.6991l-6.1212-6.1212-6.1212 6.1212v7.6991h3.6726v-6.1212h4.8967v6.1212z"/>
  <path d="m104.6 18h-10.203v-1.125h10.203zm0.39853-7.4797-5.5 5.5019-5.5-5.5019 0.7971-0.79102 4.1361 4.131v-13.86h1.1337v13.86l4.1361-4.131z"/>
  <path d="m117 18q-1.2455 0-2.4007-0.32158-1.1451-0.32121-2.1496-0.90403-0.99443-0.59265-1.8181-1.4063-0.81362-0.82361-1.4062-1.8181-0.58258-1.0044-0.90403-2.1496-0.32126-1.1551-0.32126-2.4006 0-1.2456 0.32126-2.3907 0.32126-1.1551 0.90403-2.1496 0.59262-1.0045 1.4062-1.8181 0.82368-0.82369 1.8181-1.4063 1.0044-0.59261 2.1496-0.91408 1.1551-0.32121 2.4007-0.32121 1.2455 0 2.3906 0.32121 1.1551 0.32159 2.1496 0.91408 1.0044 0.58259 1.8181 1.4063 0.82367 0.8136 1.4062 1.8181 0.59263 0.99442 0.91404 2.1496 0.32164 1.1451 0.32164 2.3907 0 1.2455-0.32164 2.4006-0.32126 1.1451-0.91404 2.1496-0.58258 0.99446-1.4062 1.8181-0.81362 0.81364-1.8181 1.4063-0.99444 0.58259-2.1496 0.90403-1.1451 0.32158-2.3906 0.32158zm0-16.714q-1.5971 0-3.0034 0.61267-1.3962 0.6027-2.4509 1.6574-1.0447 1.0446-1.6574 2.4509-0.60268 1.3962-0.60268 2.9933 0 1.5971 0.60268 3.0033 0.61274 1.3962 1.6574 2.4509 1.0547 1.0446 2.4509 1.6574 1.4062 0.60266 3.0034 0.60266 1.5971 0 2.9933-0.60266 1.4062-0.61275 2.4509-1.6574 1.0547-1.0547 1.6574-2.4509 0.61274-1.4062 0.61274-3.0033 0-1.5972-0.61274-2.9933-0.60268-1.4062-1.6574-2.4509-1.0447-1.0547-2.4509-1.6574-1.3962-0.61267-2.9933-0.61267zm0 7.7144v-5.1428h-1.2857v6.4286h5.1428v-1.2857z"/>
  <path d="m138.45 11.021 2.1797 6.9785-5.6252-4.3242-5.6252 4.3242 2.1797-6.9785-5.5549-4.2716h6.8906l2.1094-6.7499 2.1094 6.7499h6.8906zm0.0438 3.9197q-0.33411-1.0898-0.66796-2.1621-0.33411-1.0811-0.68553-2.1709 0.90528-0.67676 1.7842-1.3623 0.8789-0.68553 1.7754-1.3711h-4.4123l-1.2832-4.1046-1.2832 4.1046h-4.4123q0.8965 0.68557 1.7754 1.3711 0.87889 0.68553 1.7842 1.3623-0.35149 1.0899-0.68553 2.1709-0.33411 1.0723-0.66795 2.1621l3.4893-2.6894z"/>
  <path d="m160.71 7.7144q0.27136 0 0.50222 0.10052 0.23093 0.10052 0.4018 0.28115 0.18066 0.17081 0.28119 0.40181 0.10054 0.23089 0.10054 0.50222v8.9999h-18v-8.9999q0-0.27133 0.10054-0.50222 0.10053-0.23089 0.27136-0.40181 0.18067-0.18063 0.41182-0.28115 0.23093-0.10052 0.50222-0.10052h2.5714v-5.1428q0-0.53237 0.20069-0.99442 0.20069-0.4721 0.55245-0.82369 0.3515-0.35144 0.81362-0.55244 0.4721-0.20104 1.0044-0.20104h8.9998q0.53238 0 0.99443 0.20104 0.4721 0.20066 0.82367 0.55244 0.35149 0.35144 0.55245 0.82369 0.20069 0.46205 0.20069 0.99442 0 0.53237-0.20069 1.0045-0.20107 0.46205-0.55245 0.81364-0.3515 0.35144-0.82367 0.55244-0.46205 0.20104-0.99443 0.20104h-1.2857v2.5714zm0-5.1428q0-0.27133-0.10054-0.50226-0.10054-0.23089-0.2812-0.40177-0.17083-0.18063-0.40176-0.28115-0.23093-0.10052-0.50222-0.10052-0.27137 0-0.50222 0.10052-0.23093 0.10052-0.41182 0.28115-0.17084 0.17081-0.27137 0.40177-0.10054 0.23089-0.10054 0.50226v1.2857h1.2857q0.27137 0 0.50222-0.10052 0.23093-0.10052 0.40177-0.27133 0.18066-0.18063 0.28119-0.41179 0.10054-0.23089 0.10054-0.50226zm-11.571 5.1428h7.7144v-5.1428q0-0.34161 0.0903-0.66297 0.10053-0.33141 0.27137-0.62273h-6.7903q-0.27137 0-0.50222 0.10052-0.23093 0.10052-0.41182 0.28115-0.17083 0.17081-0.27137 0.40177-0.10053 0.23089-0.10053 0.50226zm11.571 1.2857h-15.428v7.7144h15.428zm-11.571 2.5714h-2.5714v-1.2857h2.5714z"/>
  <path d="m162 2v14h18v-14zm1.125 1.1153h15.75v1.1152h-15.75zm0 2.2305h7.5v4.5449h-5.625v0.71874h5.625v4.2754h-7.5zm8.25 0h7.5v9.5391h-7.5v-4.2754h5.625v-0.71874h-5.625z"/>
  <path d="m193.85 2v3.3949l-2.846 1.511e-4v1.1789h2.846v2.926h1.154v-2.926h3v-1.1791h-3v-3.3949zm-13.846 3.3945v10.605h15v-5.8926l-1.154-4.15e-4 -3.1e-4 4.7153h-12.691v-8.2481l9.2305-2.267e-4v-1.1794z"/>
  <path d="m211.27 13.417q0.45822 0.01889 0.86252 0.20597 0.41325 0.17914 0.70977 0.49228 0.30535 0.31328 0.47621 0.72498 0.17951 0.41175 0.17951 0.86824 0 0.47444-0.18858 0.89511-0.17951 0.41171-0.49413 0.72502-0.30535 0.30421-0.72775 0.49228-0.42229 0.17914-0.88943 0.17914-0.47621 0-0.89846-0.17914-0.41329-0.18779-0.72775-0.49228-0.30536-0.31328-0.49413-0.72502-0.17951-0.42067-0.17951-0.89511 0-0.63546 0.3235-1.1815 0.33256-0.54605 0.89846-0.84141l-2.3899-4.7528-2.3809 4.735q0.28759 0.15231 0.51215 0.36693 0.23355 0.21466 0.3953 0.48336 0.16175 0.26831 0.25169 0.57284 0.0899 0.29552 0.0899 0.61759 0 0.47444-0.18858 0.89511-0.17951 0.41171-0.49413 0.72502-0.30535 0.30421-0.72776 0.49228-0.42226 0.17911-0.88944 0.17911-0.47618 0-0.89843-0.17914-0.41329-0.18779-0.72775-0.49228-0.30536-0.31328-0.49413-0.72502-0.18026-0.42065-0.18026-0.89509 0-0.45649 0.17082-0.85929 0.17082-0.41171 0.46722-0.71606 0.29628-0.31328 0.69181-0.50123 0.40429-0.18779 0.86248-0.21466l2.893-5.7824-3.0457-6.0685 0.52112-1.5664 3.1715 6.3372 3.1715-6.3372 0.52111 1.5664-3.0457 6.0685zm-6.9718 3.4371q0.24262 0 0.44927-0.08955 0.20671-0.08955 0.35939-0.24148 0.16175-0.161 0.25169-0.36693 0.0899-0.20597 0.0899-0.44754 0-0.24148-0.0899-0.44753-0.0899-0.20597-0.25169-0.35786-0.15268-0.16096-0.35939-0.25055-0.20673-0.08955-0.44927-0.08955-0.24262 0-0.44919 0.08955-0.20672 0.08955-0.36847 0.25055-0.15268 0.15227-0.24262 0.35786-0.0899 0.20597-0.0899 0.44753 0 0.24148 0.0899 0.44754 0.0899 0.20593 0.24262 0.36693 0.16175 0.15227 0.36847 0.24148 0.20672 0.08955 0.44919 0.08955zm6.9001 0q0.24262 0 0.44923-0.08955 0.20672-0.08955 0.3594-0.24148 0.16175-0.161 0.25169-0.36693 0.0899-0.20597 0.0899-0.44754 0-0.24148-0.0899-0.44753-0.0899-0.20597-0.25169-0.35786-0.15268-0.16096-0.3594-0.25055-0.20672-0.08955-0.44923-0.08955-0.24262 0-0.44923 0.08955-0.20671 0.08955-0.36846 0.25055-0.15269 0.15227-0.24262 0.35786-0.0899 0.20597-0.0899 0.44753 0 0.24148 0.0899 0.44754 0.0899 0.20593 0.24262 0.36693 0.16175 0.15227 0.36846 0.24148 0.20673 0.08955 0.44923 0.08955z"/>
  <path d="m227.92 3.3747 4.8253 4.8253v9.8h-11.25v-3.375h-4.4999v-14.625h6.4248l3.375 3.375zm0.32504 1.9248v2.5752h2.5752zm-10.125 8.2001h3.375v-10.125h3.7002l-2.25-2.2501h-4.8253zm4.4999 3.375h8.9998v-7.8751h-4.4999v-4.4999h-4.4999z"/>
  <path d="m250.75 6.7497v11.25h-9.0003v-1.125h-6.7502v-14.625h4.5001q0-0.45698 0.17572-0.87013 0.18441-0.41307 0.48343-0.71194 0.30761-0.3076 0.71195-0.4834 0.41311-0.18441 0.87893-0.18441 0.45702 0 0.87017 0.18441 0.4131 0.17572 0.7119 0.4834 0.3076 0.29891 0.48347 0.71194 0.18441 0.41315 0.18441 0.87013h4.5001v4.5zm-12.376-3.375v1.1251h6.7502v-1.1251h-2.2501q0-0.21955 8e-3 -0.46582 8e-3 -0.2547-8e-3 -0.50097-0.0189-0.2547-0.079-0.4834-0.0525-0.23731-0.17572-0.41315-0.12319-0.17572-0.33406-0.28115-0.21086-0.10543-0.53614-0.10543-0.49217 0-0.72952 0.22862-0.22862 0.22862-0.32536 0.57133-0.0877 0.33405-0.079 0.72948 8e-3 0.39554 8e-3 0.72071zm3.3752 12.375v-8.9999h5.6253v-3.375h-1.1251v2.2501h-9.0002v-2.2501h-1.1251v12.375zm7.8754-7.8751h-6.7502v8.9999h6.7502z"/>
  <path d="m264 0h6.003v6.003h-1.5029v-3.5771l-14.071 14.071h3.5771v1.5029h-6.003v-6.003h1.5029v3.5772l14.071-14.071h-3.5771v-1.5029z"/>
  <path d="m288 9.55h-18v-1.125h18z"/>
  <path d="m306 8.4375v1.1251h-8.4375v8.4375h-1.125v-8.4375h-8.4375v-1.1251h8.4375v-8.4375h1.125v8.4375z"/>
  <path d="m315 16.875q1.3535 0 2.5928-0.41304 1.248-0.42192 2.2676-1.1777 1.0283-0.76467 1.7842-1.8281 0.76464-1.0723 1.1602-2.373l1.0723 0.33406q-0.43945 1.4677-1.3096 2.6806-0.87013 1.2041-2.0479 2.0742-1.1689 0.87006-2.584 1.3535-1.4062 0.47463-2.9356 0.47463-1.2041 0-2.3467-0.29891-1.1426-0.29891-2.1621-0.86129-1.0107-0.57126-1.8721-1.3798-0.86132-0.81738-1.4941-1.8457v2.1357h-1.125v-4.4998h4.4999v1.125h-2.7774q0.51855 1.0283 1.2832 1.8632 0.77345 0.82615 1.7227 1.4151 0.94923 0.58003 2.0303 0.90524 1.0899 0.3163 2.2412 0.3163zm8.9999-14.625v4.4998h-4.4999v-1.125h2.7774q-0.51855-1.0283-1.292-1.8545-0.76464-0.83496-1.7139-1.415-0.94923-0.58887-2.0391-0.90524-1.0811-0.32537-2.2324-0.32537-1.3535 0-2.6016 0.42188-1.2393 0.41308-2.2676 1.1777-1.0195 0.75586-1.7842 1.8281-0.75587 1.0634-1.1514 2.3642l-1.0723-0.33406q0.43945-1.4589 1.3096-2.6718 0.87013-1.2128 2.0391-2.083 1.1778-0.8701 2.584-1.3447 1.4151-0.48336 2.9443-0.48336 1.2041 0 2.3467 0.29891 1.1426 0.29891 2.1533 0.8701 1.0195 0.56249 1.8809 1.3799 0.86132 0.80858 1.4941 1.8369v-2.1357z"/>
  <path d="m333 18q0-1.2422 0.31635-2.3906 0.32806-1.1484 0.91404-2.1446 0.58594-1.0078 1.4062-1.8281 0.82031-0.82032 1.8164-1.4062 1.0078-0.58596 2.1563-0.9024 1.1484-0.32801 2.3906-0.32801v1.5q-1.0312 0-1.9922 0.26944t-1.793 0.76171q-0.83203 0.48049-1.5235 1.1719-0.67967 0.67971-1.1719 1.5117-0.48046 0.83204-0.75001 1.793-0.26948 0.96093-0.26948 1.9922zm-4.4999 0q0-1.8633 0.48046-3.5859 0.48045-1.7344 1.3594-3.2344 0.87889-1.5 2.1094-2.7305 1.2304-1.2304 2.7304-2.1094 1.5-0.87889 3.2227-1.3593 1.7344-0.48049 3.5977-0.48049v1.5q-1.6523 0-3.1875 0.43359-1.5235 0.42188-2.8594 1.2071-1.3359 0.78514-2.4375 1.8867-1.0898 1.0899-1.875 2.4258-0.78517 1.336-1.2188 2.8712-0.42188 1.5234-0.42188 3.1758zm-4.4999 0q0-2.4844 0.64452-4.7811 0.64453-2.2969 1.8164-4.3007 1.1719-2.0039 2.8125-3.6446 1.6406-1.6406 3.6445-2.8125 2.0039-1.1719 4.3007-1.8164 2.2969-0.64453 4.7811-0.64453v1.5q-2.2734 0-4.3828 0.59767-2.0976 0.58592-3.9375 1.6641-1.8281 1.0664-3.3398 2.5781-1.5117 1.5117-2.5898 3.3516-1.0664 1.8281-1.6641 3.9375-0.58594 2.0977-0.58594 4.371zm15.75-4.4999q0.46874 0 0.8789 0.17572 0.41015 0.17572 0.71486 0.48049 0.30463 0.30458 0.48045 0.71485 0.17575 0.41016 0.17575 0.8789 0 0.46877-0.17575 0.87893t-0.48045 0.71482q-0.30463 0.30458-0.71486 0.48049-0.41016 0.17572-0.8789 0.17572t-0.87889-0.17572q-0.41016-0.17572-0.71486-0.48049-0.30463-0.30458-0.48046-0.71482-0.17574-0.41016-0.17574-0.87893 0-0.46873 0.17574-0.8789 0.17575-0.41016 0.48046-0.71485 0.30463-0.30458 0.71486-0.48049 0.41015-0.17572 0.87889-0.17572z"/>
  <path d="m360 3.1154v13.385h-18v-13.385h4.8253l1.125-1.1154h6.0998l1.125 1.1154zm-1.125 1.1154h-4.1749l-1.125-1.1154h-5.1504l-1.125 1.1154h-4.1749v11.154h15.75zm-7.875 1.1154q0.93166 0 1.749 0.34841 0.82616 0.34841 1.4326 0.95852 0.61523 0.60126 0.9668 1.4203 0.3515 0.81042 0.3515 1.7341 0 0.92364-0.3515 1.7428-0.3515 0.81042-0.9668 1.4204-0.60647 0.60126-1.4326 0.94979-0.81736 0.34841-1.749 0.34841-0.93165 0-1.7578-0.34841-0.8174-0.34842-1.4326-0.94979-0.60646-0.60995-0.958-1.4204-0.35149-0.81911-0.35149-1.7428 0-0.92368 0.35149-1.7341 0.3515-0.81908 0.958-1.4203 0.61523-0.60995 1.4326-0.95852 0.82617-0.34841 1.7578-0.34841zm0 7.8077q0.69434 0 1.3096-0.2615 0.61523-0.27019 1.0722-0.72328 0.45702-0.45309 0.72072-1.0631 0.2725-0.60995 0.2725-1.2984 0-0.6884-0.2725-1.2984-0.26381-0.60999-0.72072-1.0631-0.45702-0.45313-1.0722-0.71451-0.61523-0.27019-1.3096-0.27019-0.69433 0-1.3096 0.27019-0.61523 0.2615-1.0722 0.71451-0.45702 0.45313-0.72948 1.0631-0.26382 0.60995-0.26382 1.2984 0 0.6884 0.26382 1.2984 0.2725 0.60999 0.72948 1.0631 0.45702 0.45313 1.0722 0.72328 0.61524 0.2615 1.3096 0.2615zm-6.1875-7.8077q0.22866 0 0.39549 0.16552 0.16705 0.16552 0.16705 0.3921 0 0.22673-0.16705 0.3921-0.16706 0.16552-0.39549 0.16552-0.22866 0-0.39549-0.16552-0.16706-0.16552-0.16706-0.3921 0-0.22673 0.16706-0.3921 0.16705-0.16552 0.39549-0.16552z"/>
  <path d="m372.45 11.021 2.1797 6.9785-5.6252-4.3241-5.6252 4.3241 2.1797-6.9785-5.5549-4.2716h6.8906l2.1095-6.7499 2.1094 6.7499h6.8906zm0.0438 3.9197q-0.33411-1.0898-0.66796-2.1621-0.33411-1.0811-0.68553-2.1709 0.90528-0.67676 1.7842-1.3623 0.8789-0.68553 1.7754-1.3711h-4.4123l-1.2832-4.1046-1.2832 4.1046h-4.4123q0.8965 0.68557 1.7754 1.3711 0.87889 0.68553 1.7842 1.3623-0.35149 1.0899-0.68553 2.1709-0.33411 1.0723-0.66795 2.1621l3.4893-2.6894z"/>
  <path d="m378 24.75-5.5547 4.2716 2.1797 6.9785-5.625-4.3242-5.625 4.3242 2.1797-6.9785-5.5547-4.2716h6.8903l2.1094-6.7499 2.1093 6.7499h6.8904z"/>
  <path d="m333 32-9-8.9196 1.0901-1.0804 7.9099 7.8393 7.9099-7.8393 1.0901 1.0804z"/>
  <path d="m318.94 24.814q0.52732 0 0.94919 0.13188 0.42187 0.13188 0.86136 0.41299 0.74706 0.47455 1.5556 0.68545 0.81736 0.21086 1.6963 0.21086v2.399q0 0.7733-0.2022 1.4851-0.20221 0.71178-0.55371 1.3621-0.35149 0.64146-0.83497 1.2127-0.4834 0.57117-1.0459 1.0808-0.5625 0.50092-1.1865 0.93149-0.61524 0.4218-1.2393 0.7733-0.63281-0.35143-1.248-0.7733-0.61523-0.43056-1.1777-0.93149-0.56251-0.50965-1.0459-1.0808-0.4834-0.57121-0.83497-1.2127-0.3515-0.6503-0.5537-1.3621-0.20221-0.71178-0.20221-1.4851v-2.399q0.87893 0 1.6875-0.21086 0.81736-0.21086 1.5644-0.68545 0.43948-0.28115 0.86135-0.41299 0.42187-0.13188 0.94923-0.13188zm3.9375 2.4869q-0.72949-0.10543-1.4414-0.35143-0.70311-0.246-1.3184-0.65907-0.53612-0.35143-1.1777-0.35143-0.64161 0-1.1778 0.35143-0.6152 0.41299-1.3271 0.65907-0.70314 0.246-1.4326 0.35143v1.3532q0 0.91392 0.3428 1.7311 0.34281 0.80845 0.89647 1.5115 0.56251 0.69421 1.2656 1.2742 0.71191 0.57998 1.4326 1.0282 0.72072-0.44817 1.4239-1.0282 0.71192-0.57998 1.2656-1.2742 0.5625-0.70302 0.90527-1.5115 0.3428-0.81721 0.3428-1.7311zm1.125-8.6733v5.9404q-0.2812 0-0.56251-0.03401-0.28119-0.03401-0.5625-0.09674v-1.3093h-15.75v8.9984h5.9238q0.14929 0.28984 0.32504 0.57117 0.17575 0.28115 0.36926 0.5536h-7.7431v-14.622zm-1.125 1.1248h-15.75v2.2496h15.75z"/>
  <path d="m306 19.903v15.597h-18v-15.597h2.4v-1.1998h3.6q0.825 0 1.5844 0.25318 0.76875 0.25318 1.4156 0.75925 0.64687-0.50618 1.4062-0.75925 0.76875-0.25318 1.5938-0.25318h3.6v1.1998zm-6 0q-0.65624 0-1.275 0.22484-0.61874 0.21577-1.125 0.63738v11.754q0.55313-0.30949 1.1625-0.45928 0.60937-0.15947 1.2375-0.15947h2.4v-11.998zm-8.4 11.998h2.4q0.62812 0 1.2375 0.15947 0.60938 0.15002 1.1625 0.45928v-11.754q-0.50623-0.4218-1.125-0.63738-0.61875-0.22484-1.275-0.22484h-2.4zm-2.4 2.3996h7.5563q-0.3001-0.29059-0.60937-0.50614-0.30955-0.22484-0.64687-0.37486-0.32806-0.15947-0.70314-0.23429-0.36548-0.084269-0.79688-0.084269h-3.6v-11.998h-1.2zm15.6-13.198h-1.2v11.998h-3.6q-0.43124 0-0.80625 0.08427-0.36548 0.0752-0.7031 0.23429-0.32807 0.15002-0.63754 0.37486-0.30954 0.21577-0.60937 0.50614h7.5563z"/>
  <path d="m272 20h14v14h-14zm12.923 6.4616v-5.3846h-5.3846v5.3846zm-6.4615-5.3846h-5.3846v5.3846h5.3846zm-5.3846 6.4615v5.3846h5.3846v-5.3846zm6.4615 5.3846h5.3846v-5.3846h-5.3846z"/>
  <path d="m253.29 25.429q0.27137 0 0.50226 0.10051 0.23093 0.10051 0.40176 0.28112 0.18066 0.17079 0.2812 0.40169 0.10053 0.23086 0.10053 0.50208 0 0.27129-0.10053 0.50208-0.10054 0.23086-0.2812 0.41174-0.17083 0.17078-0.40176 0.27129-0.23093 0.10051-0.50226 0.10051-0.27137 0-0.50222-0.10051-0.23093-0.10051-0.41182-0.27129-0.17083-0.18061-0.27137-0.41174-0.10027-0.23086-0.10027-0.50208 0-0.27129 0.10054-0.50208 0.10053-0.23086 0.27136-0.40169 0.18067-0.18061 0.41182-0.28112 0.23093-0.10051 0.50222-0.10051zm7.7143 0q0.27137 0 0.50222 0.10051 0.23093 0.10051 0.40177 0.28112 0.18066 0.17079 0.28119 0.40169 0.10054 0.23086 0.10054 0.50208 0 0.27129-0.10054 0.50208-0.10053 0.23086-0.28119 0.41174-0.17084 0.17078-0.40177 0.27129-0.23092 0.10051-0.50222 0.10051-0.27099 0-0.50226-0.10051-0.23093-0.10051-0.41182-0.27129-0.17083-0.18061-0.27137-0.41174-0.10053-0.23086-0.10053-0.50208 0-0.27129 0.10053-0.50208 0.10054-0.23086 0.27137-0.40169 0.18067-0.18061 0.41182-0.28112 0.23093-0.10051 0.50226-0.10051zm7.7143 0q0.27136 0 0.50222 0.10051 0.23093 0.10051 0.4018 0.28112 0.18066 0.17079 0.28119 0.40169 0.10054 0.23086 0.10054 0.50208 0 0.27129-0.10054 0.50208-0.10053 0.23086-0.28119 0.41174-0.17084 0.17078-0.4018 0.27129-0.23093 0.10051-0.50222 0.10051-0.27137 0-0.50223-0.10051-0.23093-0.10051-0.41185-0.27129-0.17084-0.18061-0.27137-0.41174-0.10054-0.23086-0.10054-0.50208 0-0.27129 0.10054-0.50208 0.10053-0.23086 0.27137-0.40169 0.18066-0.18061 0.41185-0.28112 0.23093-0.10051 0.50223-0.10051z"/>
  <path d="m234 21.877h18v10.123h-18zm16.875 1.1248h-15.75v5.6238h15.75zm-15.75 7.8734h15.75v-1.1248h-15.75z"/>
 </g>
</defs>
<use id="state"             xlink:href="#toolbar"/>
<use id="state-inverted"    xlink:href="#toolbar"/>
<use id="state-hover"       xlink:href="#toolbar"/>
<use id="state-yellow"      xlink:href="#toolbar"/>
<use id="state-orange"      xlink:href="#toolbar"/>
<use id="state-red"         xlink:href="#toolbar"/>
<use id="state-green"       xlink:href="#toolbar"/>
<use id="state-active"      xlink:href="#toolbar"/>
</svg>
