<?xml version="1.0" encoding="UTF-8"?>
<svg width="378" height="36" version="1.1" viewBox="0 0 378 36" xmlns="http://www.w3.org/2000/svg" xmlns:xlink="http://www.w3.org/1999/xlink">
<style>
  use:not(:target) {
    display: none;
  }

  use {
    fill: #000;
  }

  use[id$="-inverted"] {
    fill: #fff;
  }

  use[id$="-hover"] {
    fill: #919191;
  }

  use[id$="-yellow"] {
    fill: #FFB900;
  }
  
  use[id$="-orange"] {
    fill: #DE6800;
  }
  
  use[id$="-green"] {
    fill: #007F0E;
  }
  
  use[id$="-red"] {
    fill: #7F0000;
  }
  
  use[id$="-active"] {
    fill: #0078D7;
  }
</style>
<defs>
 <g id="toolbar">
  <path d="m18 9.14v1.13h-15.8l6.94 6.94-.793.793-8.29-8.29 8.29-8.29.793.793-6.94 6.94z"/>
  <path d="m18 9.14v1.13h15.8l-6.94 6.94.793.793 8.29-8.29-8.29-8.29-.793.793 6.94 6.94z"/>
  <path d="m54 1.04-7.95 7.96 7.95 7.96-1.04 1.04-7.96-7.95-7.96 7.95-1.04-1.04 7.95-7.96-7.95-7.96 1.04-1.04 7.96 7.95 7.96-7.95z"/>
  <path d="m65.4.334q1.46.396 2.67 1.24 1.21.835 2.08 1.99.879 1.14 1.36 2.54.483 1.39.483 2.9 0 1.24-.325 2.39-.316 1.15-.905 2.15-.58 1-1.41 1.83-.817.817-1.82 1.41-1 .58-2.15.905-1.15.316-2.39.316t-2.39-.316q-1.15-.325-2.15-.905-1-.589-1.83-1.41-.817-.826-1.41-1.83-.58-1-.905-2.14-.316-1.15-.316-2.4 0-1.23.325-2.39.325-1.16.923-2.18.606-1.03 1.47-1.86.861-.844 1.94-1.44h-2.41v-1.12h4.5v4.5h-1.12v-2.61q-1.03.492-1.86 1.24-.826.738-1.42 1.67-.589.923-.905 2-.316 1.07-.316 2.21 0 1.08.281 2.09.281 1 .791 1.88.519.87 1.24 1.59.721.721 1.59 1.24.879.51 1.88.791 1 .281 2.09.281 1.08 0 2.08-.281 1.01-.281 1.88-.791.879-.519 1.6-1.24.721-.721 1.23-1.59.519-.879.8-1.88.281-1 .281-2.09 0-1.32-.431-2.54-.422-1.22-1.19-2.22-.765-1-1.83-1.73-1.05-.738-2.33-1.09l.299-1.08z"/>
  <path d="m81 1.21 9 9.01-.861.861-.794-.784v7.7h-6.12v-6.12h-2.45v6.12h-6.12v-7.7l-.794.784-.861-.861zm6.12 15.6v-7.7l-6.12-6.12-6.12 6.12v7.7h3.67v-6.12h4.9v6.12z"/>
  <path d="m105 18h-10.2v-1.12h10.2zm.399-7.48-5.5 5.5-5.5-5.5.797-.791 4.14 4.13v-13.9h1.13v13.9l4.14-4.13z"/>
  <path d="m117 18q-1.25 0-2.4-.322-1.15-.321-2.15-.904-.994-.593-1.82-1.41-.814-.824-1.41-1.82-.583-1-.904-2.15-.321-1.16-.321-2.4 0-1.25.321-2.39.321-1.16.904-2.15.593-1 1.41-1.82.824-.824 1.82-1.41 1-.593 2.15-.914 1.16-.321 2.4-.321 1.25 0 2.39.321 1.16.322 2.15.914 1 .583 1.82 1.41.824.814 1.41 1.82.593.994.914 2.15.322 1.15.322 2.39 0 1.25-.322 2.4-.321 1.15-.914 2.15-.583.994-1.41 1.82-.814.814-1.82 1.41-.994.583-2.15.904-1.15.322-2.39.322zm0-16.7q-1.6 0-3 .613-1.4.603-2.45 1.66-1.04 1.04-1.66 2.45-.603 1.4-.603 2.99t.603 3q.613 1.4 1.66 2.45 1.05 1.04 2.45 1.66 1.41.603 3 .603 1.6 0 2.99-.603 1.41-.613 2.45-1.66 1.05-1.05 1.66-2.45.613-1.41.613-3 0-1.6-.613-2.99-.603-1.41-1.66-2.45-1.04-1.05-2.45-1.66-1.4-.613-2.99-.613zm0 7.71v-5.14h-1.29v6.43h5.14v-1.29z"/>
  <path d="m138 11 2.18 6.98-5.63-4.32-5.63 4.32 2.18-6.98-5.55-4.27h6.89l2.11-6.75 2.11 6.75h6.89zm.0438 3.92q-.334-1.09-.668-2.16-.334-1.08-.686-2.17.905-.677 1.78-1.36.879-.686 1.78-1.37h-4.41l-1.28-4.1-1.28 4.1h-4.41q.896.686 1.78 1.37.879.686 1.78 1.36-.351 1.09-.686 2.17-.334 1.07-.668 2.16l3.49-2.69z"/>
  <path d="m161 7.71q.271 0 .502.101.231.101.402.281.181.171.281.402.101.231.101.502v9h-18v-9q0-.271.101-.502.101-.231.271-.402.181-.181.412-.281.231-.101.502-.101h2.57v-5.14q0-.532.201-.994.201-.472.552-.824.352-.351.814-.552.472-.201 1-.201h9q.532 0 .994.201.472.201.824.552.351.351.552.824.201.462.201.994t-.201 1q-.201.462-.552.814-.352.351-.824.552-.462.201-.994.201h-1.29v2.57zm0-5.14q0-.271-.101-.502-.101-.231-.281-.402-.171-.181-.402-.281t-.502-.101q-.271 0-.502.101-.231.101-.412.281-.171.171-.271.402-.101.231-.101.502v1.29h1.29q.271 0 .502-.101.231-.101.402-.271.181-.181.281-.412.101-.231.101-.502zm-11.6 5.14h7.71v-5.14q0-.342.0903-.663.101-.331.271-.623h-6.79q-.271 0-.502.101-.231.101-.412.281-.171.171-.271.402-.101.231-.101.502zm11.6 1.29h-15.4v7.71h15.4zm-11.6 2.57h-2.57v-1.29h2.57z"/>
  <path d="m162 2v14h18v-14zm1.12 1.12h15.8v1.12h-15.8zm0 2.23h7.5v4.54h-5.62v.719h5.62v4.28h-7.5zm8.25 0h7.5v9.54h-7.5v-4.28h5.62v-.719h-5.62z"/>
  <path d="m194 2v3.39l-2.85.000151v1.18h2.85v2.93h1.15v-2.93h3v-1.18h-3v-3.39zm-13.8 3.39v10.6h15v-5.89l-1.15-.000415-.00031 4.72h-12.7v-8.25l9.23-.000227v-1.18z"/>
  <path d="m211 13.4q.458.0189.863.206.413.179.71.492.305.313.476.725.18.412.18.868 0 .474-.189.895-.18.412-.494.725-.305.304-.728.492-.422.179-.889.179-.476 0-.898-.179-.413-.188-.728-.492-.305-.313-.494-.725-.18-.421-.18-.895 0-.635.324-1.18.333-.546.898-.841l-2.39-4.75-2.38 4.74q.288.152.512.367.234.215.395.483.162.268.252.573.0899.296.0899.618 0 .474-.189.895-.18.412-.494.725-.305.304-.728.492-.422.179-.889.179-.476 0-.898-.179-.413-.188-.728-.492-.305-.313-.494-.725-.18-.421-.18-.895 0-.456.171-.859.171-.412.467-.716.296-.313.692-.501.404-.188.862-.215l2.89-5.78-3.05-6.07.521-1.57 3.17 6.34 3.17-6.34.521 1.57-3.05 6.07zm-6.97 3.44q.243 0 .449-.0896.207-.0896.359-.241.162-.161.252-.367.0899-.206.0899-.448 0-.241-.0899-.448-.0899-.206-.252-.358-.153-.161-.359-.251-.207-.0896-.449-.0896-.243 0-.449.0896-.207.0896-.368.251-.153.152-.243.358-.0899.206-.0899.448 0 .241.0899.448.0899.206.243.367.162.152.368.241.207.0896.449.0896zm6.9 0q.243 0 .449-.0896.207-.0896.359-.241.162-.161.252-.367.0899-.206.0899-.448 0-.241-.0899-.448-.0899-.206-.252-.358-.153-.161-.359-.251-.207-.0896-.449-.0896-.243 0-.449.0896-.207.0896-.368.251-.153.152-.243.358-.0899.206-.0899.448 0 .241.0899.448.0899.206.243.367.162.152.368.241.207.0896.449.0896z"/>
  <path d="m228 3.37 4.83 4.83v9.8h-11.2v-3.38h-4.5v-14.6h6.42l3.38 3.38zm.325 1.92v2.58h2.58zm-10.1 8.2h3.38v-10.1h3.7l-2.25-2.25h-4.83zm4.5 3.38h9v-7.88h-4.5v-4.5h-4.5z"/>
  <path d="m251 6.75v11.2h-9v-1.12h-6.75v-14.6h4.5q0-.457.176-.87.184-.413.483-.712.308-.308.712-.483.413-.184.879-.184.457 0 .87.184.413.176.712.483.308.299.483.712.184.413.184.87h4.5v4.5zm-12.4-3.38v1.13h6.75v-1.13h-2.25q0-.22.008-.466.008-.255-.008-.501-.0189-.255-.079-.483-.0525-.237-.176-.413-.123-.176-.334-.281-.211-.105-.536-.105-.492 0-.73.229-.229.229-.325.571-.0877.334-.079.729.008.396.008.721zm3.38 12.4v-9h5.63v-3.38h-1.13v2.25h-9v-2.25h-1.13v12.4zm7.88-7.88h-6.75v9h6.75z"/>
  <path d="m264 0h6v6h-1.5v-3.58l-14.1 14.1h3.58v1.5h-6v-6h1.5v3.58l14.1-14.1h-3.58v-1.5z"/>
  <path d="m288 9.55h-18v-1.12h18z"/>
  <path d="m306 8.44v1.13h-8.44v8.44h-1.12v-8.44h-8.44v-1.13h8.44v-8.44h1.12v8.44z"/>
  <path d="m315 16.9q1.35 0 2.59-.413 1.25-.422 2.27-1.18 1.03-.765 1.78-1.83.765-1.07 1.16-2.37l1.07.334q-.439 1.47-1.31 2.68-.87 1.2-2.05 2.07-1.17.87-2.58 1.35-1.41.475-2.94.475-1.2 0-2.35-.299t-2.16-.861q-1.01-.571-1.87-1.38-.861-.817-1.49-1.85v2.14h-1.12v-4.5h4.5v1.12h-2.78q.519 1.03 1.28 1.86.773.826 1.72 1.42.949.58 2.03.905 1.09.316 2.24.316zm9-14.6v4.5h-4.5v-1.12h2.78q-.519-1.03-1.29-1.85-.765-.835-1.71-1.42-.949-.589-2.04-.905-1.08-.325-2.23-.325-1.35 0-2.6.422-1.24.413-2.27 1.18-1.02.756-1.78 1.83-.756 1.06-1.15 2.36l-1.07-.334q.439-1.46 1.31-2.67.87-1.21 2.04-2.08 1.18-.87 2.58-1.34 1.42-.483 2.94-.483 1.2 0 2.35.299t2.15.87q1.02.562 1.88 1.38.861.809 1.49 1.84v-2.14z"/>
  <path d="m333 18q0-1.24-.316-2.39-.328-1.15-.914-2.14-.586-1.01-1.41-1.83-.82-.82-1.82-1.41-1.01-.586-2.16-.902-1.15-.328-2.39-.328v1.5q1.03 0 1.99.269t1.79.762q.832.48 1.52 1.17.68.68 1.17 1.51.48.832.75 1.79.269.961.269 1.99zm4.5 0q0-1.86-.48-3.59-.48-1.73-1.36-3.23-.879-1.5-2.11-2.73-1.23-1.23-2.73-2.11-1.5-.879-3.22-1.36-1.73-.48-3.6-.48v1.5q1.65 0 3.19.434 1.52.422 2.86 1.21 1.34.785 2.44 1.89 1.09 1.09 1.88 2.43.785 1.34 1.22 2.87.422 1.52.422 3.18zm4.5 0q0-2.48-.645-4.78-.645-2.3-1.82-4.3-1.17-2-2.81-3.64-1.64-1.64-3.64-2.81t-4.3-1.82q-2.3-.645-4.78-.645v1.5q2.27 0 4.38.598 2.1.586 3.94 1.66 1.83 1.07 3.34 2.58t2.59 3.35q1.07 1.83 1.66 3.94.586 2.1.586 4.37zm-15.8-4.5q-.469 0-.879.176-.41.176-.715.48-.305.305-.48.715-.176.41-.176.879 0 .469.176.879t.48.715q.305.305.715.48.41.176.879.176t.879-.176q.41-.176.715-.48.305-.305.48-.715.176-.41.176-.879 0-.469-.176-.879-.176-.41-.48-.715-.305-.305-.715-.48-.41-.176-.879-.176z"/>
  <path d="m360 3.12v13.4h-18v-13.4h4.83l1.12-1.12h6.1l1.12 1.12zm-1.12 1.12h-4.17l-1.12-1.12h-5.15l-1.12 1.12h-4.17v11.2h15.8zm-7.88 1.12q.932 0 1.75.348.826.348 1.43.959.615.601.967 1.42.352.81.352 1.73 0 .924-.352 1.74-.352.81-.967 1.42-.606.601-1.43.95-.817.348-1.75.348-.932 0-1.76-.348-.817-.348-1.43-.95-.606-.61-.958-1.42-.351-.819-.351-1.74 0-.924.351-1.73.352-.819.958-1.42.615-.61 1.43-.959.826-.348 1.76-.348zm0 7.81q.694 0 1.31-.262.615-.27 1.07-.723.457-.453.721-1.06.272-.61.272-1.3 0-.688-.272-1.3-.264-.61-.721-1.06-.457-.453-1.07-.715-.615-.27-1.31-.27-.694 0-1.31.27-.615.262-1.07.715-.457.453-.729 1.06-.264.61-.264 1.3 0 .688.264 1.3.272.61.729 1.06.457.453 1.07.723.615.262 1.31.262zm-6.19-7.81q.229 0 .395.166.167.166.167.392 0 .227-.167.392-.167.166-.395.166-.229 0-.395-.166-.167-.166-.167-.392 0-.227.167-.392.167-.166.395-.166z"/>
  <path d="m372 11 2.18 6.98-5.63-4.32-5.63 4.32 2.18-6.98-5.55-4.27h6.89l2.11-6.75 2.11 6.75h6.89zm.0438 3.92q-.334-1.09-.668-2.16-.334-1.08-.686-2.17.905-.677 1.78-1.36.879-.686 1.78-1.37h-4.41l-1.28-4.1-1.28 4.1h-4.41q.896.686 1.78 1.37.879.686 1.78 1.36-.351 1.09-.686 2.17-.334 1.07-.668 2.16l3.49-2.69z"/>
  <path d="m378 24.8-5.55 4.27 2.18 6.98-5.62-4.32-5.62 4.32 2.18-6.98-5.55-4.27h6.89l2.11-6.75 2.11 6.75h6.89z"/>
  <path d="m333 32-9-8.92 1.09-1.08 7.91 7.84 7.91-7.84 1.09 1.08z"/>
  <path d="m319 24.8q.527 0 .949.132t.861.413q.747.475 1.56.685.817.211 1.7.211v2.4q0 .773-.202 1.49-.202.712-.554 1.36-.351.641-.835 1.21-.483.571-1.05 1.08-.562.501-1.19.931-.615.422-1.24.773-.633-.351-1.25-.773-.615-.431-1.18-.931-.563-.51-1.05-1.08-.483-.571-.835-1.21-.352-.65-.554-1.36-.202-.712-.202-1.49v-2.4q.879 0 1.69-.211.817-.211 1.56-.685.439-.281.861-.413.422-.132.949-.132zm3.94 2.49q-.729-.105-1.44-.351-.703-.246-1.32-.659-.536-.351-1.18-.351-.642 0-1.18.351-.615.413-1.33.659-.703.246-1.43.351v1.35q0 .914.343 1.73.343.808.896 1.51.563.694 1.27 1.27.712.58 1.43 1.03.721-.448 1.42-1.03.712-.58 1.27-1.27.562-.703.905-1.51.343-.817.343-1.73zm1.12-8.67v5.94q-.281 0-.563-.034-.281-.034-.562-.0967v-1.31h-15.8v9h5.92q.149.29.325.571.176.281.369.554h-7.74v-14.6zm-1.12 1.12h-15.8v2.25h15.8z"/>
  <path d="m306 19.9v15.6h-18v-15.6h2.4v-1.2h3.6q.825 0 1.58.253.769.253 1.42.759.647-.506 1.41-.759.769-.253 1.59-.253h3.6v1.2zm-6 0q-.656 0-1.28.225-.619.216-1.12.637v11.8q.553-.309 1.16-.459.609-.159 1.24-.159h2.4v-12zm-8.4 12h2.4q.628 0 1.24.159.609.15 1.16.459v-11.8q-.506-.422-1.12-.637-.619-.225-1.28-.225h-2.4zm-2.4 2.4h7.56q-.3-.291-.609-.506-.31-.225-.647-.375-.328-.159-.703-.234-.365-.0843-.797-.0843h-3.6v-12h-1.2zm15.6-13.2h-1.2v12h-3.6q-.431 0-.806.0843-.365.0752-.703.234-.328.15-.638.375-.31.216-.609.506h7.56z"/>
  <path d="m272 20h14v14h-14zm12.9 6.46v-5.38h-5.38v5.38zm-6.46-5.38h-5.38v5.38h5.38zm-5.38 6.46v5.38h5.38v-5.38zm6.46 5.38h5.38v-5.38h-5.38z"/>
  <path d="m253 25.4q.271 0 .502.101.231.101.402.281.181.171.281.402.101.231.101.502 0 .271-.101.502-.101.231-.281.412-.171.171-.402.271t-.502.101q-.271 0-.502-.101-.231-.101-.412-.271-.171-.181-.271-.412-.1-.231-.1-.502 0-.271.101-.502.101-.231.271-.402.181-.181.412-.281.231-.101.502-.101zm7.71 0q.271 0 .502.101.231.101.402.281.181.171.281.402.101.231.101.502 0 .271-.101.502-.101.231-.281.412-.171.171-.402.271-.231.101-.502.101-.271 0-.502-.101-.231-.101-.412-.271-.171-.181-.271-.412-.101-.231-.101-.502 0-.271.101-.502.101-.231.271-.402.181-.181.412-.281.231-.101.502-.101zm7.71 0q.271 0 .502.101.231.101.402.281.181.171.281.402.101.231.101.502 0 .271-.101.502-.101.231-.281.412-.171.171-.402.271-.231.101-.502.101-.271 0-.502-.101-.231-.101-.412-.271-.171-.181-.271-.412-.101-.231-.101-.502 0-.271.101-.502.101-.231.271-.402.181-.181.412-.281.231-.101.502-.101z"/>
  <path d="m234 21.9h18v10.1h-18zm16.9 1.12h-15.8v5.62h15.8zm-15.8 7.87h15.8v-1.12h-15.8z"/>
 </g>
</defs>
<use id="state"             xlink:href="#toolbar"/>
<use id="state-inverted"    xlink:href="#toolbar"/>
<use id="state-hover"       xlink:href="#toolbar"/>
<use id="state-yellow"      xlink:href="#toolbar"/>
<use id="state-orange"      xlink:href="#toolbar"/>
<use id="state-red"         xlink:href="#toolbar"/>
<use id="state-green"       xlink:href="#toolbar"/>
<use id="state-active"      xlink:href="#toolbar"/>
</svg>
